<?xml version="1.0" encoding="utf-8"?>
<!-- Generator: Adobe Illustrator 16.0.0, SVG Export Plug-In . SVG Version: 6.00 Build 0)  -->
<!DOCTYPE svg PUBLIC "-//W3C//DTD SVG 1.1//EN" "http://www.w3.org/Graphics/SVG/1.1/DTD/svg11.dtd">
<svg version="1.1" id="Layer_2" xmlns="http://www.w3.org/2000/svg" xmlns:xlink="http://www.w3.org/1999/xlink" x="0px" y="0px"
	 width="209.333px" height="232.445px" viewBox="8.806 0 209.333 232.445" enable-background="new 8.806 0 209.333 232.445"
	 xml:space="preserve">
<g>
	<path fill="#fdecba" d="M19.047,191.735c0,0,0.851-0.681,2.424-1.956c1.615-1.275,3.912-3.146,7.016-5.314
		c1.573-1.105,3.316-2.254,5.272-3.359c1.956-1.148,4.167-2.254,6.633-3.189c4.891-1.913,10.886-3.062,17.434-2.721
		c3.274,0.17,6.676,0.765,10.077,1.828c3.401,1.021,6.804,2.551,10.205,4.337c1.7,0.893,3.358,1.871,5.018,2.934
		c1.658,1.063,3.358,2.126,5.017,3.274c3.359,2.296,6.676,4.72,10.163,7.144c3.486,2.424,7.058,4.805,10.885,6.931
		c3.827,2.083,7.866,3.954,12.161,5.188c4.252,1.232,8.801,1.7,13.266,1.318c2.254-0.213,4.465-0.639,6.591-1.318
		c2.126-0.681,4.209-1.573,6.08-2.807c1.871-1.232,3.572-2.721,4.975-4.422c0.724-0.851,1.361-1.786,1.914-2.722
		c0.553-0.978,1.062-1.956,1.488-2.976c1.743-4.125,2.423-8.717,2.211-13.182c-0.17-4.465-1.318-8.887-3.231-12.841
		c-1.956-3.955-4.763-7.398-8.249-9.865c-3.486-2.466-7.526-4.039-11.65-4.507c-2.041-0.213-4.082-0.17-6.081,0.17
		c-1.955,0.34-3.869,1.021-5.612,1.914c-3.486,1.828-6.378,4.634-8.249,7.865c-0.936,1.616-1.615,3.359-1.956,5.103
		c-0.382,1.786-0.425,3.529-0.17,5.272c0.255,1.744,0.766,3.402,1.488,4.976c0.213,0.382,0.383,0.765,0.596,1.147
		c0.212,0.383,0.425,0.723,0.638,1.063c0.255,0.34,0.51,0.68,0.723,1.021c0.255,0.34,0.553,0.638,0.808,0.936
		c1.105,1.232,2.339,2.253,3.699,3.061c1.361,0.809,2.807,1.318,4.252,1.659c2.935,0.595,5.91,0.212,8.207-1.063
		c2.296-1.233,3.784-3.401,4.337-5.612c0.255-1.105,0.297-2.211,0.042-3.189c-0.212-0.978-0.68-1.871-1.317-2.594
		c-1.233-1.488-3.02-2.296-4.55-2.381c-0.766-0.043-1.488,0.085-2.126,0.383c-0.638,0.255-1.19,0.68-1.616,1.105
		c-0.425,0.468-0.766,0.936-1.062,1.445c-0.256,0.511-0.468,0.979-0.553,1.403c-0.213,0.893-0.213,1.616-0.128,2.169
		c0.042,0.255,0.085,0.51,0.128,0.68c0.042,0.17,0.085,0.298,0.085,0.426c0,0.212-0.043,0.212-0.213,0.085
		c-0.085-0.085-0.17-0.17-0.298-0.341c-0.127-0.17-0.213-0.382-0.34-0.638c-0.213-0.553-0.383-1.36-0.341-2.338
		c0.086-0.979,0.426-2.169,1.191-3.317c0.383-0.553,0.893-1.105,1.53-1.615c0.638-0.468,1.403-0.851,2.296-1.063
		c1.743-0.425,3.869-0.085,5.655,1.063c0.894,0.553,1.743,1.318,2.467,2.254c0.68,0.935,1.232,2.083,1.487,3.316
		c0.256,1.232,0.213,2.551-0.042,3.869c-0.298,1.275-0.808,2.594-1.573,3.741c-0.383,0.596-0.851,1.148-1.318,1.659
		c-0.51,0.51-1.062,1.021-1.7,1.402c-1.233,0.851-2.637,1.446-4.125,1.829s-3.062,0.51-4.677,0.425
		c-0.809-0.042-1.616-0.128-2.382-0.34c-0.382-0.085-0.808-0.213-1.19-0.341l-0.595-0.17c-0.213-0.085-0.383-0.17-0.596-0.213
		c-6.25-2.381-11.268-8.801-11.99-16.455c-0.298-3.826,0.638-7.866,2.679-11.353s5.06-6.463,8.717-8.547
		c1.828-1.062,3.869-1.828,5.995-2.338c2.126-0.468,4.294-0.681,6.506-0.553c4.379,0.212,8.759,1.615,12.671,3.954
		c1.955,1.19,3.741,2.594,5.399,4.252c1.616,1.658,3.062,3.486,4.252,5.485c2.424,3.996,3.955,8.589,4.508,13.309
		s0.255,9.652-1.191,14.372c-0.723,2.338-1.743,4.634-3.104,6.76c-0.681,1.063-1.445,2.084-2.254,3.02l-1.317,1.36
		c-0.213,0.255-0.468,0.426-0.724,0.638l-0.723,0.638c-3.954,3.231-8.887,5.146-13.903,5.868c-2.509,0.34-5.061,0.425-7.569,0.298
		c-2.551-0.17-5.06-0.553-7.525-1.233c-4.891-1.318-9.524-3.444-13.862-5.953c-4.337-2.509-8.419-5.399-12.458-8.334
		c-3.997-2.934-7.951-5.91-11.99-8.589c-4.04-2.721-8.249-5.145-12.714-6.973c-2.211-0.936-4.465-1.658-6.803-2.212
		c-2.297-0.553-4.635-0.893-7.017-1.062c-4.72-0.298-9.481,0.255-13.988,1.53c-4.508,1.276-8.76,3.402-12.714,5.953
		C26.531,185.952,22.789,188.844,19.047,191.735z"/>
</g>
<g>
	<path fill="#fdecba" d="M73.345,180.553c0,0,0.298,0.17,0.894,0.425c0.127,0.085,0.297,0.17,0.468,0.213
		c0.17,0.085,0.382,0.17,0.595,0.255s0.468,0.17,0.681,0.298c0.255,0.085,0.51,0.17,0.808,0.255c0.553,0.213,1.19,0.34,1.913,0.553
		c0.723,0.128,1.446,0.34,2.297,0.426c1.658,0.212,3.528,0.297,5.527,0.085c1.998-0.213,4.167-0.681,6.293-1.531
		c1.062-0.468,2.126-0.978,3.146-1.615s1.998-1.361,2.934-2.211c1.828-1.659,3.444-3.742,4.422-6.123
		c0.511-1.19,0.851-2.424,1.021-3.742c0.171-1.275,0.128-2.594-0.042-3.869c-0.383-2.551-1.531-4.975-3.274-6.718
		c-1.743-1.744-4.124-2.679-6.463-2.85c-2.339-0.17-4.592,0.596-6.08,1.956c-1.488,1.361-2.339,3.401-2.509,5.23
		c-0.17,1.87,0.383,3.571,1.36,4.677c0.468,0.553,1.063,0.979,1.701,1.318s1.275,0.553,1.956,0.681
		c1.275,0.255,2.466,0.17,3.358-0.085c0.256-0.043,0.426-0.128,0.638-0.171c0.085-0.042,0.213-0.042,0.298-0.085
		c0.085-0.042,0.17-0.085,0.255-0.127c0.171-0.085,0.341-0.128,0.468-0.213c0.128-0.085,0.256-0.128,0.383-0.213
		c0.255-0.085,0.426-0.255,0.596-0.298c0.17-0.085,0.298-0.127,0.383-0.127c0.17,0,0.212,0.17,0.085,0.51
		c-0.128,0.341-0.426,0.894-1.021,1.446c-0.596,0.553-1.531,1.147-2.764,1.445c-1.233,0.34-2.722,0.468-4.38,0.043
		c-0.213-0.043-0.426-0.128-0.638-0.171c-0.213-0.085-0.426-0.17-0.638-0.212l-0.298-0.128l-0.298-0.17
		c-0.213-0.128-0.425-0.213-0.638-0.34c-0.808-0.511-1.573-1.19-2.254-2.041c-2.594-3.444-2.296-9.354,1.659-13.182
		c1.998-1.913,4.89-2.892,7.78-2.806c1.446,0.042,2.892,0.34,4.295,0.85c1.403,0.553,2.722,1.318,3.869,2.339
		c2.296,2.083,3.784,4.975,4.295,8.079c0.255,1.53,0.298,3.146,0.085,4.677c-0.213,1.573-0.638,3.146-1.318,4.593
		c-1.318,2.891-3.401,5.399-5.91,7.313c-1.233,0.978-2.594,1.785-4.039,2.423c-1.403,0.681-2.935,1.19-4.423,1.531
		C84.91,184.805,78.406,183.741,73.345,180.553z"/>
</g>
<g>
	<path fill="#fdecba" d="M68.157,182.849c0,0-0.212,0-0.553,0.043c-0.17,0-0.425,0.042-0.68,0.085
		c-0.256,0.042-0.553,0.085-0.894,0.17c-0.68,0.127-1.488,0.34-2.381,0.68c-0.893,0.341-1.871,0.766-2.849,1.361
		c-0.979,0.595-1.956,1.36-2.892,2.253c-0.936,0.894-1.786,1.956-2.509,3.189c-0.723,1.19-1.233,2.551-1.573,3.954
		s-0.425,2.849-0.34,4.295c0.213,2.891,1.275,5.697,2.892,7.823c1.615,2.126,3.784,3.572,5.867,4.38
		c1.063,0.425,2.084,0.68,3.062,0.893c0.978,0.17,1.871,0.255,2.679,0.298c1.616,0.085,2.807-0.043,3.529,0.085
		s0.936,0.383,0.638,0.723c-0.128,0.17-0.425,0.383-0.808,0.638c-0.426,0.213-0.936,0.468-1.616,0.638
		c-1.317,0.383-3.146,0.639-5.357,0.298c-1.105-0.127-2.253-0.425-3.444-0.893c-1.19-0.468-2.423-1.105-3.571-1.956
		s-2.254-1.913-3.188-3.188c-0.936-1.276-1.701-2.722-2.212-4.253c-1.062-3.104-1.275-6.76-0.212-10.204
		c1.062-3.444,3.401-6.506,6.378-8.462C61.142,183.699,64.713,182.679,68.157,182.849z"/>
</g>
<g>
	<path fill="#fdecba" d="M54.892,194.201c0,0,0,0.085,0,0.213s-0.043,0.34-0.043,0.638c0,0.553,0.043,1.318,0.255,2.126
		c0.213,0.851,0.596,1.743,1.148,2.594s1.275,1.616,2.126,2.126c0.808,0.553,1.701,0.851,2.551,0.979
		c0.851,0.127,1.658,0.127,2.339,0.042c1.403-0.127,2.339-0.425,3.062-0.085c0.34,0.17,0.553,0.383,0.553,0.681
		c0,0.297-0.128,0.68-0.51,1.021c-0.724,0.765-2.424,1.53-4.635,1.36c-1.063-0.085-2.297-0.383-3.402-1.063
		c-1.147-0.638-2.126-1.658-2.849-2.849C53.998,199.729,53.786,196.668,54.892,194.201z"/>
</g>
<g>
	<path fill="#fdecba" d="M95.881,199.134c0,0,0.127,0.17,0.425,0.511c0.255,0.34,0.638,0.808,1.148,1.402
		c1.021,1.19,2.551,2.807,4.592,4.593c2.041,1.743,4.55,3.656,7.483,5.272c2.935,1.658,6.208,3.104,9.694,4.082
		c3.444,1.021,7.059,1.53,10.503,1.7c3.444,0.128,6.761-0.085,9.652-0.553c5.825-0.893,10.034-2.551,11.82-2.636
		c0.893-0.043,1.147,0.17,0.808,0.595c-0.34,0.426-1.19,1.105-2.636,1.829c-1.403,0.723-3.359,1.572-5.825,2.253
		c-2.424,0.681-5.315,1.233-8.59,1.403c-0.808,0.043-1.658,0.085-2.466,0.043c-0.425,0-0.851,0-1.275,0
		c-0.426-0.043-0.851-0.043-1.318-0.086c-0.213,0-0.425-0.042-0.681-0.042c-0.212-0.043-0.425-0.043-0.68-0.085
		c-0.426-0.043-0.893-0.085-1.36-0.128c-0.468-0.085-0.894-0.127-1.361-0.213c-0.468-0.042-0.936-0.127-1.36-0.255
		c-3.699-0.68-7.441-1.998-11.013-3.784c-1.786-0.893-3.529-1.956-5.229-3.104c-1.659-1.148-3.274-2.424-4.763-3.784
		c-1.488-1.361-2.892-2.85-4.167-4.38C98.049,202.365,96.902,200.75,95.881,199.134z"/>
</g>
<g>
	<path fill="#fdecba" d="M157.62,199.304c0,0,0.382-0.255,1.062-0.766c0.681-0.51,1.743-1.19,2.934-2.211
		c2.467-1.956,5.868-5.017,9.27-9.269c0.426-0.553,0.851-1.106,1.275-1.659c0.213-0.297,0.426-0.553,0.638-0.85
		c0.213-0.298,0.426-0.596,0.639-0.894c0.425-0.595,0.85-1.232,1.275-1.828c0.383-0.638,0.808-1.318,1.19-1.956
		c0.213-0.34,0.425-0.68,0.596-1.021c0.17-0.34,0.382-0.68,0.553-1.062c0.382-0.723,0.765-1.403,1.147-2.169
		c0.681-1.488,1.446-2.977,2.041-4.592c0.681-1.573,1.19-3.231,1.786-4.89c0.468-1.701,0.978-3.402,1.318-5.188
		c0.765-3.529,1.232-7.187,1.317-10.886c0.043-3.656-0.34-7.355-1.658-10.672c-0.34-0.808-0.723-1.616-1.147-2.338
		c-0.128-0.17-0.213-0.383-0.341-0.553l-0.383-0.51c-0.255-0.34-0.468-0.723-0.808-1.021l-0.425-0.468
		c-0.128-0.17-0.298-0.34-0.426-0.468l-0.936-0.851c-0.34-0.255-0.68-0.51-1.021-0.765c-0.34-0.255-0.723-0.468-1.062-0.68
		c-1.445-0.851-3.019-1.488-4.592-1.914c-1.573-0.383-3.189-0.553-4.763-0.51c-3.146,0.085-6.038,1.105-8.291,2.764
		c-2.254,1.659-3.827,3.87-4.593,6.081c-0.383,1.105-0.553,2.211-0.553,3.231s0.213,1.956,0.553,2.849
		c0.681,1.744,1.743,3.062,2.764,3.955c1.021,0.893,2.041,1.36,2.722,1.658c0.17,0.085,0.34,0.127,0.468,0.212
		s0.255,0.085,0.383,0.128c0.213,0.085,0.383,0.17,0.468,0.255c0.17,0.17,0,0.298-0.468,0.383c-0.128,0.043-0.255,0.043-0.426,0.085
		c-0.17,0-0.34,0-0.553,0c-0.085,0-0.212,0-0.34,0s-0.213-0.042-0.34-0.042c-0.256-0.043-0.511-0.043-0.766-0.171
		c-1.063-0.297-2.381-0.936-3.657-2.083c-0.17-0.128-0.297-0.298-0.468-0.468c-0.17-0.17-0.297-0.34-0.467-0.511
		c-0.298-0.382-0.596-0.723-0.851-1.147c-0.553-0.851-1.021-1.786-1.318-2.892c-0.638-2.211-0.468-4.89,0.553-7.398
		c1.021-2.551,2.892-4.932,5.442-6.761c2.552-1.786,5.825-2.976,9.312-3.104l0.638-0.042c0.212,0,0.425,0,0.638,0
		c0.425,0.042,0.893,0.042,1.318,0.085c0.425,0.043,0.893,0.128,1.317,0.17c0.426,0.042,0.894,0.17,1.318,0.255
		c1.743,0.425,3.529,1.021,5.145,1.956c1.659,0.936,3.189,2.083,4.593,3.487c0.34,0.382,0.638,0.765,0.978,1.148
		c0.171,0.17,0.298,0.383,0.468,0.595l0.426,0.638c0.595,0.808,1.021,1.701,1.445,2.636c1.658,3.657,2.169,7.739,2.084,11.736
		c0,1.021-0.086,1.998-0.171,2.977c-0.085,1.021-0.255,1.998-0.34,2.976c-0.085,0.511-0.128,0.979-0.213,1.488
		c-0.085,0.511-0.17,0.979-0.297,1.488c-0.213,0.979-0.383,1.999-0.639,2.977l-0.382,1.488c-0.128,0.511-0.256,0.979-0.426,1.488
		c-0.298,0.978-0.638,1.956-0.936,2.934c-0.383,0.936-0.723,1.914-1.105,2.85c-0.383,0.935-0.808,1.87-1.232,2.806
		c-1.744,3.699-3.827,7.271-6.251,10.588c-2.381,3.316-5.145,6.378-8.121,9.099C164.168,194.839,160.979,197.221,157.62,199.304z"/>
</g>
<g>
	<path fill="#fdecba" d="M184.705,168.477c0,0,0.17-0.468,0.51-1.36c0.17-0.425,0.383-0.978,0.638-1.616
		c0.213-0.638,0.468-1.402,0.766-2.253s0.553-1.786,0.851-2.849c0.298-1.021,0.553-2.169,0.851-3.359
		c0.085-0.298,0.127-0.596,0.212-0.936c0.085-0.298,0.128-0.638,0.171-0.978c0.127-0.638,0.255-1.318,0.383-1.999
		c0.127-0.68,0.212-1.403,0.297-2.126s0.213-1.445,0.256-2.211c0.085-0.766,0.127-1.53,0.212-2.339
		c0.043-0.808,0.085-1.615,0.128-2.423c0.042-0.808,0.042-1.658,0.042-2.509c0-0.85,0-1.701-0.042-2.594
		c-0.043-0.893-0.043-1.786-0.128-2.679s-0.17-1.828-0.255-2.721c-0.128-0.936-0.255-1.828-0.383-2.764s-0.34-1.871-0.51-2.807
		c-0.724-3.784-1.829-7.611-3.274-11.438c-0.723-1.914-1.573-3.785-2.466-5.613c-0.936-1.829-1.956-3.657-3.104-5.357
		c-1.105-1.744-2.381-3.402-3.699-4.975s-2.764-3.104-4.294-4.464c-1.531-1.361-3.146-2.636-4.848-3.699
		c-1.701-1.106-3.444-2.041-5.272-2.849c-1.786-0.808-3.657-1.403-5.527-1.913c-1.871-0.468-3.699-0.766-5.528-0.936
		c-0.467-0.042-0.893-0.085-1.36-0.085s-0.893,0-1.36,0s-0.893,0.042-1.318,0.042l-0.681,0.042l-0.638,0.085
		c-1.743,0.127-3.401,0.51-5.017,0.978c-3.146,0.936-5.911,2.423-8.207,4.167c-2.296,1.743-4.082,3.657-5.442,5.527
		c-1.36,1.871-2.339,3.657-2.977,5.188c-0.17,0.383-0.298,0.766-0.425,1.105c-0.128,0.34-0.298,0.681-0.383,0.978
		c-0.213,0.638-0.383,1.148-0.553,1.616c-0.553,1.786-0.851,2.083-1.021,0.978c-0.043-0.255-0.043-0.638-0.043-1.105
		s0.085-0.978,0.128-1.573c0.128-1.233,0.51-2.721,1.148-4.465c0.68-1.743,1.7-3.657,3.146-5.612
		c1.445-1.956,3.358-3.912,5.74-5.655c2.381-1.743,5.229-3.231,8.504-4.209c0.425-0.085,0.808-0.212,1.232-0.298
		c0.213-0.042,0.426-0.085,0.638-0.17c0.213-0.042,0.426-0.085,0.639-0.127c0.425-0.085,0.85-0.17,1.317-0.255
		c0.426-0.042,0.894-0.085,1.318-0.17c0.213-0.042,0.468-0.042,0.681-0.085c0.212,0,0.468-0.042,0.68-0.042
		c0.468,0,0.894-0.042,1.361-0.042c0.935,0.042,1.87,0,2.806,0.085c3.742,0.255,7.653,1.19,11.396,2.764
		c1.871,0.765,3.699,1.743,5.485,2.849c1.786,1.105,3.486,2.423,5.103,3.827c3.273,2.806,6.123,6.25,8.546,9.95
		c2.424,3.742,4.423,7.824,5.953,12.118c3.062,8.589,4.422,17.943,3.954,27.085C190.657,151.512,188.405,160.525,184.705,168.477z"
		/>
</g>
<g>
	<path fill="#fdecba" d="M187.299,131.272c0,0-0.17-0.34-0.553-0.978c-0.17-0.298-0.383-0.723-0.681-1.148s-0.596-0.936-0.978-1.531
		c-0.341-0.553-0.851-1.148-1.318-1.829c-0.213-0.34-0.511-0.638-0.766-0.978c-0.298-0.34-0.553-0.68-0.851-1.063
		c-1.275-1.403-2.721-2.934-4.507-4.422s-3.784-2.977-6.08-4.252c-2.296-1.276-4.848-2.424-7.611-3.316
		c-0.681-0.255-1.403-0.425-2.083-0.596c-0.341-0.085-0.724-0.212-1.063-0.255c-0.34-0.085-0.723-0.127-1.105-0.212
		c-1.446-0.298-2.934-0.468-4.465-0.553c-3.019-0.17-6.123,0-9.099,0.723c-2.977,0.68-5.826,1.871-8.334,3.572
		c-2.509,1.701-4.635,3.827-6.166,6.25c-1.53,2.423-2.466,5.06-2.721,7.696c-0.256,2.636,0.085,5.23,0.935,7.441
		c0.426,1.106,0.936,2.126,1.531,3.062c0.595,0.893,1.318,1.701,2.041,2.381s1.53,1.233,2.339,1.743
		c0.425,0.213,0.808,0.468,1.19,0.638c0.383,0.213,0.808,0.34,1.19,0.51c1.53,0.596,2.977,0.851,4.167,0.936
		s2.168,0.042,2.849,0.042c1.36-0.042,1.743,0.127,1.021,0.595c-0.17,0.128-0.425,0.298-0.723,0.426
		c-0.298,0.127-0.681,0.297-1.148,0.425c-0.893,0.255-2.083,0.425-3.486,0.425c-1.403-0.042-3.062-0.297-4.805-0.978
		c-1.743-0.68-3.571-1.701-5.23-3.316c-0.425-0.383-0.808-0.851-1.19-1.276c-0.34-0.468-0.723-0.936-1.062-1.488
		c-0.681-1.021-1.233-2.168-1.658-3.401c-0.426-1.233-0.766-2.551-0.936-3.912c-0.17-1.36-0.213-2.806-0.043-4.252
		c0.256-2.891,1.233-5.91,2.892-8.589s3.912-5.06,6.633-6.973c2.722-1.914,5.868-3.274,9.228-4.04
		c3.358-0.765,6.846-0.978,10.289-0.638c6.932,0.638,13.734,3.274,19.39,7.441C180.028,119.621,184.535,125.191,187.299,131.272z"/>
</g>
<g>
	<path fill="#fdecba" d="M168.42,85.435c0,0-1.233-1.19-3.444-3.316c-2.169-2.126-5.272-5.188-8.844-9.057
		c-3.572-3.87-7.569-8.589-11.141-14.287c-1.786-2.849-3.444-5.911-4.848-9.227c-1.445-3.274-2.551-6.803-3.188-10.502
		c-0.638-3.657-0.851-7.483-0.341-11.225c0.511-3.742,1.701-7.441,3.572-10.673c1.871-3.231,4.38-6.08,7.398-8.079
		s6.378-3.189,9.694-3.572s6.548,0.085,9.27,1.233c2.722,1.148,4.848,2.849,6.421,4.635c1.53,1.786,2.509,3.614,3.062,5.23
		c0.17,0.383,0.212,0.808,0.34,1.148c0.085,0.34,0.17,0.723,0.213,1.021c0.127,0.638,0.127,1.191,0.085,1.659
		c0,0.467-0.085,0.808-0.128,1.063c-0.043,0.255-0.128,0.425-0.213,0.51c-0.127,0.17-0.297,0-0.425-0.468
		c-0.17-0.468-0.34-1.233-0.681-2.211c-0.34-0.978-0.851-2.168-1.658-3.444c-0.808-1.276-1.913-2.636-3.401-3.912
		c-1.488-1.233-3.359-2.381-5.527-3.019c-1.105-0.34-2.254-0.553-3.487-0.638c-1.232-0.085-2.509-0.042-3.826,0.17
		c-2.594,0.382-5.315,1.36-7.781,2.934c-2.467,1.573-4.635,3.827-6.378,6.506s-2.977,5.825-3.614,9.184
		c-0.681,3.359-0.766,6.931-0.298,10.502c0.213,1.786,0.553,3.614,1.021,5.4c0.468,1.786,0.978,3.571,1.701,5.315
		c2.594,7.058,6.718,13.691,11.438,19.814C158.002,74.252,163.275,79.95,168.42,85.435z"/>
</g>
<g>
	<path fill="#fdecba" d="M145.587,51.122c0,0-0.086-0.212-0.213-0.553c-0.128-0.383-0.298-0.936-0.511-1.658
		c-0.382-1.446-0.808-3.614-0.765-6.25c0.042-2.636,0.68-5.825,2.423-8.844c1.744-2.977,4.72-5.74,8.419-7.143
		c1.871-0.681,3.912-1.063,5.953-0.893c2.041,0.17,4.082,0.808,5.825,1.828s3.274,2.381,4.38,3.997
		c1.147,1.616,1.871,3.401,2.168,5.23c0.298,1.828,0.085,3.614-0.383,5.103c-0.467,1.53-1.19,2.764-1.998,3.784
		c-0.766,0.978-1.615,1.701-2.381,2.211c-0.383,0.255-0.766,0.425-1.063,0.553c-0.34,0.127-0.638,0.212-0.85,0.255
		c-1.021,0.128-1.233-0.085-0.894-0.553c0.085-0.127,0.213-0.255,0.341-0.382c0.127-0.17,0.297-0.34,0.51-0.51
		c0.17-0.213,0.383-0.425,0.638-0.638c0.213-0.255,0.468-0.511,0.681-0.808c0.978-1.19,2.041-2.934,2.466-5.23
		c0.468-2.253,0-4.932-1.615-7.271c-0.809-1.19-1.914-2.253-3.189-3.104l-0.51-0.297c-0.171-0.085-0.341-0.17-0.511-0.298
		c-0.34-0.212-0.723-0.34-1.062-0.51c-0.383-0.17-0.766-0.255-1.148-0.383l-0.596-0.127c-0.212-0.042-0.382-0.085-0.595-0.127
		c-3.189-0.553-6.804,0.468-9.694,2.594c-1.446,1.063-2.765,2.381-3.742,3.912c-1.021,1.531-1.743,3.274-2.211,5.06
		C144.524,43.681,144.652,47.592,145.587,51.122z"/>
</g>
<g>
	<path fill="#fdecba" d="M186.321,173.281c0,0,0.128-0.17,0.426-0.553c0.255-0.34,0.68-0.85,1.19-1.53
		c1.021-1.318,2.339-3.316,3.784-5.783c1.403-2.509,2.849-5.527,4.082-8.887c1.19-3.401,2.168-7.101,2.679-10.927
		c0.553-3.827,0.638-7.739,0.383-11.438c-0.298-3.699-0.851-7.186-1.658-10.29c-1.531-6.166-3.572-10.587-3.784-12.458
		c-0.128-0.936,0.085-1.19,0.553-0.893c0.468,0.34,1.19,1.233,2.083,2.721c1.743,2.934,4.039,8.122,5.103,14.967
		c0.128,0.85,0.255,1.743,0.34,2.636c0.043,0.468,0.085,0.893,0.128,1.361c0.043,0.467,0.043,0.935,0.085,1.403
		c0,0.213,0.043,0.468,0.043,0.723c0,0.255,0,0.467,0,0.723c0,0.468,0,0.936,0.042,1.446c-0.042,0.978-0.042,1.956-0.127,2.934
		c-0.213,3.955-0.979,8.121-2.254,12.161c-0.638,2.041-1.403,4.039-2.296,5.995c-0.894,1.956-1.914,3.869-3.02,5.74
		c-1.105,1.828-2.339,3.614-3.656,5.272C189.17,170.263,187.767,171.836,186.321,173.281z"/>
</g>
<g>
	<path fill="#fdecba" d="M176.924,189.822c0,0,0.17-0.043,0.51-0.171c0.341-0.127,0.809-0.255,1.403-0.425
		c1.233-0.34,3.02-0.808,5.23-1.105s4.89-0.425,7.781,0c2.849,0.383,5.952,1.403,8.716,3.189c2.765,1.743,5.188,4.294,6.676,7.271
		c0.17,0.383,0.341,0.766,0.511,1.148c0.127,0.382,0.297,0.765,0.425,1.147s0.213,0.808,0.298,1.19s0.17,0.809,0.213,1.19
		c0.212,1.616,0.17,3.146-0.085,4.593c-0.256,1.445-0.724,2.764-1.276,3.911c-0.595,1.148-1.275,2.127-1.955,2.892
		c-1.403,1.573-2.892,2.254-3.699,2.382c-0.851,0.127-1.063-0.086-0.809-0.553c0.128-0.213,0.341-0.468,0.638-0.809
		c0.298-0.34,0.681-0.723,1.063-1.275c0.213-0.255,0.425-0.51,0.638-0.851c0.213-0.298,0.425-0.638,0.638-0.978
		c0.213-0.341,0.383-0.766,0.596-1.148c0.085-0.213,0.17-0.425,0.255-0.638c0.042-0.128,0.085-0.213,0.128-0.34
		c0.042-0.128,0.085-0.213,0.127-0.341c0.34-0.893,0.596-1.955,0.723-3.061c0.128-1.106,0.17-2.297,0-3.487
		c-0.297-2.381-1.36-4.933-3.104-7.144s-4.21-4.124-6.974-5.399c-2.806-1.276-5.952-1.956-9.142-2.126
		C183.217,188.844,179.986,189.184,176.924,189.822z"/>
</g>
<g>
	<path fill="#fdecba" d="M15.986,198.709c0,0,0.085,0.085,0.255,0.255c0.171,0.17,0.383,0.425,0.724,0.68
		c0.68,0.596,1.743,1.361,3.273,2.084c0.766,0.383,1.658,0.681,2.637,0.936c0.978,0.213,2.083,0.425,3.316,0.468
		c1.19,0.042,2.466-0.043,3.826-0.34c1.318-0.298,2.722-0.766,4.04-1.446c2.636-1.403,4.932-3.571,6.846-5.91
		c1.913-2.339,3.486-4.89,5.103-7.186c1.615-2.297,3.273-4.423,5.357-5.996c2.126-1.573,4.635-2.764,7.568-2.679
		c0,0-0.085,0-0.213-0.042c-0.127,0-0.34-0.043-0.595-0.085c-0.553-0.043-1.318-0.085-2.297,0.042
		c-1.955,0.213-4.592,1.233-7.058,3.316c-1.233,1.063-2.424,2.339-3.572,3.785c-1.147,1.445-2.296,3.061-3.529,4.72
		c-1.232,1.658-2.551,3.316-4.124,4.847c-1.573,1.488-3.401,2.807-5.357,3.529c3.401-2.509,5.655-6.08,7.909-9.482
		c1.147-1.7,2.296-3.358,3.528-4.89c1.233-1.53,2.637-2.849,4.082-3.869c1.446-1.021,2.977-1.743,4.337-2.126
		c1.403-0.425,2.679-0.51,3.699-0.468c1.063,0.043,1.829,0.255,2.382,0.426c0.255,0.085,0.468,0.17,0.595,0.212
		c0.128,0.043,0.213,0.085,0.213,0.085c-0.596-0.383-1.318-0.723-2.041-0.936c-0.723-0.212-1.53-0.34-2.339-0.382
		c-0.808-0.043-1.615,0.042-2.466,0.17c-0.808,0.127-1.616,0.383-2.424,0.638c-0.766,0.298-1.53,0.68-2.296,1.062
		c-0.723,0.426-1.403,0.894-2.084,1.446c-1.317,1.021-2.466,2.211-3.486,3.401c-2.083,2.424-3.656,4.89-5.272,7.059
		c-1.615,2.168-3.188,3.997-4.975,5.314c-0.851,0.638-1.786,1.148-2.722,1.573c-0.936,0.426-1.913,0.681-2.892,0.894
		c-0.935,0.212-1.87,0.297-2.764,0.34c-0.893,0-1.7,0-2.466-0.128c-1.488-0.17-2.722-0.553-3.529-0.851
		c-0.425-0.127-0.723-0.297-0.936-0.382C16.114,198.751,15.986,198.709,15.986,198.709z"/>
</g>
<g>
	<path fill="#fdecba" d="M105.236,223.2c0,0-0.171-0.213-0.468-0.638c-0.298-0.383-0.766-0.936-1.318-1.658
		c-1.105-1.403-2.552-3.402-4.039-5.655c-0.171-0.298-0.383-0.553-0.553-0.851c-0.171-0.298-0.383-0.596-0.554-0.893
		c-0.382-0.596-0.765-1.233-1.147-1.829c-0.766-1.275-1.573-2.551-2.339-3.869c-0.425-0.638-0.808-1.317-1.232-1.998
		c-0.213-0.34-0.426-0.681-0.639-1.021c-0.127-0.17-0.212-0.34-0.34-0.511c-0.085-0.17-0.213-0.34-0.298-0.51
		c-0.893-1.36-1.785-2.764-2.806-4.21c0,0,0.255,0.639,0.638,1.701c0.212,0.51,0.468,1.148,0.765,1.871
		c0.298,0.723,0.639,1.488,1.021,2.338c0.766,1.701,1.701,3.572,2.722,5.57c1.063,1.956,2.211,4.04,3.359,6.166
		c-1.999-1.361-3.699-3.189-5.018-5.146s-2.169-4.082-2.679-5.952c-0.298-0.936-0.425-1.829-0.553-2.594
		c-0.128-0.809-0.17-1.488-0.213-2.041c-0.042-1.148,0-1.828,0-1.828c-1.062,3.358-0.766,7.186,0.553,10.545
		c0.638,1.7,1.531,3.231,2.552,4.634c0.51,0.681,1.021,1.361,1.615,1.956c0.298,0.298,0.553,0.596,0.851,0.894
		c0.298,0.297,0.596,0.553,0.893,0.808c2.339,2.041,4.763,3.274,6.506,3.954c0.851,0.341,1.616,0.553,2.084,0.681
		C104.98,223.157,105.236,223.2,105.236,223.2z"/>
</g>
<g>
	<path fill="#fdecba" d="M179.178,214.059c0,0-0.256,0-0.681-0.043c-0.426-0.042-1.063-0.085-1.828-0.17
		c-1.488-0.213-3.487-0.596-5.57-1.318c-1.021-0.34-2.084-0.765-3.104-1.232s-2.083-1.021-3.146-1.616
		c-2.168-1.19-4.379-2.509-6.973-4.21c0,0,0.085,0.128,0.255,0.298c0.17,0.213,0.425,0.511,0.766,0.851
		c0.638,0.723,1.615,1.658,2.764,2.637c1.19,0.978,2.594,2.041,4.209,2.976c1.573,0.936,3.359,1.829,5.272,2.637
		c-2.041,0.34-4.294-0.043-6.165-0.936c-1.913-0.851-3.444-2.168-4.55-3.486s-1.743-2.594-2.126-3.529
		c-0.17-0.468-0.298-0.851-0.383-1.105s-0.085-0.383-0.085-0.383c-0.085,1.53,0.255,3.146,0.936,4.635s1.743,2.807,2.977,3.869
		c1.233,1.063,2.722,1.913,4.209,2.424c1.488,0.51,3.02,0.766,4.423,0.766c2.849,0.042,5.145-0.809,6.59-1.616
		c0.724-0.383,1.276-0.766,1.616-1.062C178.965,214.229,179.178,214.059,179.178,214.059z"/>
</g>
<g>
	<path fill="#fdecba" d="M195.633,201.388c0,0-0.256,0.085-0.724,0.212c-0.467,0.128-1.105,0.298-1.913,0.468
		c-1.615,0.341-3.869,0.638-6.25,0.553c-1.19,0-2.467-0.127-3.699-0.298c-1.275-0.17-2.552-0.425-3.869-0.765
		c-2.637-0.638-5.4-1.531-8.505-2.679c0,0,0.128,0.085,0.383,0.255c0.213,0.17,0.596,0.425,1.021,0.723
		c0.894,0.596,2.169,1.36,3.699,2.084c1.531,0.723,3.359,1.403,5.357,1.913c1.999,0.51,4.125,0.851,6.421,1.062
		c-2.083,0.936-4.55,1.191-6.803,0.851c-2.254-0.34-4.295-1.275-5.825-2.338c-1.531-1.063-2.637-2.212-3.274-3.104
		c-0.34-0.425-0.553-0.808-0.723-1.062c-0.128-0.256-0.213-0.383-0.213-0.383c0.383,1.615,1.233,3.188,2.424,4.507
		c0.595,0.681,1.275,1.233,1.998,1.786c0.723,0.51,1.488,0.978,2.339,1.36c1.616,0.766,3.401,1.19,5.145,1.275
		s3.402-0.127,4.89-0.553c2.977-0.851,5.146-2.424,6.421-3.699c0.638-0.638,1.105-1.19,1.36-1.615
		C195.505,201.6,195.633,201.388,195.633,201.388z"/>
</g>
<g>
	<path fill="#fdecba" d="M123.136,164.48c0,0,0.426-0.043,1.233-0.086c0.808-0.042,1.998-0.127,3.444-0.127
		c2.891,0,6.931,0.17,11.098,1.488c4.124,1.275,8.376,3.741,11.268,7.44c1.445,1.829,2.509,3.997,3.188,6.378
		c0.639,2.382,0.851,4.976,0.383,7.654c0,0,0.085-0.256,0.256-0.724c0.17-0.467,0.34-1.19,0.51-2.083
		c0.128-0.893,0.213-1.998,0.17-3.231c-0.085-1.233-0.298-2.594-0.723-4.039c-0.851-2.85-2.636-5.825-5.357-8.249
		c-2.679-2.424-6.123-4.337-9.822-5.57c3.912,0.127,7.951,1.615,11.056,4.124c1.53,1.276,2.849,2.764,3.826,4.337
		c0.979,1.616,1.616,3.317,1.914,4.933c0.34,1.616,0.382,3.146,0.255,4.465c-0.128,1.318-0.426,2.466-0.723,3.359
		c-0.341,0.893-0.681,1.573-0.936,1.998s-0.426,0.681-0.426,0.681c1.914-1.956,3.104-4.89,3.231-7.994
		c0.128-3.104-0.68-6.293-2.423-9.057c-1.701-2.722-4.125-4.89-6.676-6.336c-2.594-1.488-5.357-2.338-7.951-2.679
		c-2.594-0.34-5.018-0.255-7.101,0.043c-2.084,0.298-3.87,0.808-5.315,1.318c-1.445,0.51-2.509,0.978-3.274,1.36
		C123.519,164.268,123.136,164.48,123.136,164.48z"/>
</g>
<g>
	<path fill="#fdecba" d="M167.102,141.987c0,0,0.17,0.213,0.468,0.595c0.17,0.17,0.34,0.383,0.553,0.638
		c0.213,0.255,0.468,0.553,0.723,0.893c1.063,1.318,2.339,3.189,3.529,5.358c0.17,0.255,0.298,0.553,0.468,0.808
		c0.128,0.298,0.298,0.596,0.425,0.851l0.213,0.425c0.085,0.128,0.128,0.298,0.213,0.468c0.127,0.298,0.298,0.596,0.425,0.893
		c0.553,1.233,1.148,2.467,1.658,3.785c0.298,0.638,0.511,1.317,0.851,1.998c0.128,0.34,0.255,0.681,0.383,1.021
		c0.085,0.17,0.128,0.34,0.213,0.51c0.085,0.171,0.127,0.341,0.212,0.511c0.128,0.34,0.298,0.723,0.426,1.062
		c0.127,0.341,0.255,0.724,0.425,1.105c0.085,0.171,0.17,0.383,0.213,0.554c0.085,0.17,0.128,0.382,0.213,0.553
		c0.127,0.382,0.297,0.765,0.468,1.147c0,0-0.085-0.638-0.171-1.7c-0.085-0.511-0.17-1.148-0.297-1.871
		c-0.171-0.723-0.256-1.488-0.511-2.339c-0.383-1.658-0.978-3.571-1.7-5.527c-0.724-1.956-1.616-3.997-2.552-6.038
		c1.828,1.36,3.359,3.274,4.337,5.272c1.021,2.041,1.488,4.167,1.616,6.038c0.085,0.936,0.042,1.786,0,2.551
		c-0.085,0.766-0.17,1.403-0.298,1.956c-0.255,1.063-0.468,1.658-0.468,1.658c1.913-2.764,2.466-6.591,1.658-9.992
		c-0.34-1.743-1.062-3.359-1.871-4.805c-0.212-0.34-0.425-0.723-0.68-1.062c-0.128-0.171-0.213-0.341-0.341-0.511l-0.383-0.468
		c-0.255-0.298-0.51-0.638-0.765-0.936s-0.553-0.553-0.808-0.808c-2.169-2.126-4.508-3.316-6.208-3.912
		c-0.426-0.127-0.809-0.297-1.148-0.34c-0.34-0.085-0.638-0.127-0.893-0.17C167.357,142.029,167.102,141.987,167.102,141.987z"/>
</g>
<g>
	<path fill="#fdecba" d="M196.569,78.547c0,0-0.256,0.042-0.724,0.17c-0.212,0.042-0.51,0.127-0.85,0.255
		c-0.341,0.085-0.681,0.255-1.105,0.425c-1.616,0.68-3.827,1.999-5.826,4.209c-0.255,0.255-0.51,0.553-0.723,0.851
		c-0.212,0.297-0.468,0.638-0.68,0.935c-0.468,0.638-0.851,1.361-1.233,2.083c-0.723,1.488-1.318,3.104-1.53,4.805
		c-0.596,3.359,0.127,7.059,2.126,9.695c0,0-0.213-0.553-0.511-1.616c-0.127-0.51-0.255-1.148-0.34-1.914
		c-0.043-0.723-0.17-1.573-0.085-2.466c0.042-1.829,0.425-3.912,1.275-5.953s2.211-3.997,3.954-5.4
		c-0.808,2.083-1.53,4.125-2.126,6.08c-0.595,1.956-1.062,3.827-1.403,5.485c-0.17,0.808-0.255,1.616-0.383,2.296
		c-0.085,0.68-0.17,1.318-0.212,1.829c-0.043,1.021-0.128,1.658-0.128,1.658c0.17-0.383,0.298-0.766,0.426-1.148
		c0.042-0.17,0.127-0.383,0.17-0.553c0.085-0.17,0.127-0.383,0.212-0.553c0.128-0.383,0.256-0.723,0.383-1.063
		c0.128-0.34,0.255-0.723,0.383-1.063c0.043-0.17,0.128-0.34,0.17-0.51c0.085-0.17,0.128-0.34,0.213-0.51
		c0.128-0.34,0.255-0.681,0.34-1.021c0.298-0.681,0.468-1.318,0.724-1.999c0.425-1.318,0.978-2.551,1.445-3.784
		c0.255-0.596,0.468-1.233,0.766-1.786c0.127-0.297,0.255-0.595,0.383-0.85c0.127-0.298,0.255-0.553,0.382-0.851
		c1.021-2.211,2.169-4.125,3.062-5.485c0.213-0.34,0.426-0.681,0.638-0.936c0.213-0.255,0.341-0.51,0.511-0.681
		C196.398,78.76,196.569,78.547,196.569,78.547z"/>
</g>
<g>
	<path fill="#fdecba" d="M199.076,58.775c0,0-0.042-0.085-0.17-0.213c-0.042-0.085-0.127-0.17-0.212-0.255
		c-0.086-0.085-0.213-0.213-0.341-0.34c-0.51-0.51-1.36-1.148-2.636-1.616s-2.892-0.723-4.763-0.638
		c-0.936,0.042-1.871,0.17-2.849,0.383c-0.978,0.212-1.998,0.51-3.019,0.893s-2.041,0.893-3.062,1.488s-1.999,1.318-2.892,2.126
		c-1.871,1.616-3.444,3.699-4.592,6.038c-1.105,2.338-1.701,4.89-1.744,7.356c-0.042,2.508,0.511,4.932,1.573,6.973
		c0,0-0.042-0.213-0.17-0.638c-0.042-0.213-0.127-0.468-0.17-0.766c-0.042-0.297-0.128-0.638-0.17-1.021
		c-0.213-1.573-0.255-3.827,0.34-6.463c0.596-2.636,1.914-5.57,4.125-8.036c1.105-1.233,2.381-2.339,3.784-3.231
		c1.403-0.893,2.977-1.573,4.55-1.956c-2.679,1.871-5.018,4.039-6.846,6.42c-1.829,2.381-3.146,4.932-3.955,7.271
		c-0.808,2.338-1.19,4.464-1.36,5.995c-0.042,0.383-0.085,0.723-0.085,1.021c-0.043,0.298-0.043,0.553-0.043,0.766
		c0,0.425-0.042,0.638-0.042,0.638c1.021-4.465,2.636-8.419,4.805-11.778c2.169-3.316,5.018-6.08,7.994-7.994
		c0.723-0.468,1.488-0.893,2.253-1.275c0.723-0.383,1.488-0.723,2.169-0.978c1.403-0.51,2.722-0.808,3.827-0.893
		c1.105-0.042,2.041,0.085,2.679,0.298c0.17,0.042,0.297,0.085,0.425,0.127s0.213,0.085,0.298,0.127
		C198.991,58.733,199.076,58.775,199.076,58.775z"/>
</g>
<g>
	<path fill="#fdecba" d="M107.743,73.827c0,0-0.042,0.128-0.17,0.34c-0.042,0.127-0.127,0.255-0.212,0.425
		c-0.043,0.17-0.128,0.383-0.213,0.595c-0.043,0.212-0.128,0.51-0.17,0.808c0,0.298-0.043,0.638-0.043,0.978
		c0,0.383,0.085,0.723,0.128,1.148c0.085,0.383,0.213,0.851,0.383,1.276c0.34,0.851,0.893,1.786,1.658,2.636
		c0.766,0.85,1.743,1.658,3.019,2.253c1.233,0.553,2.637,0.893,4.082,1.021c1.445,0.085,2.977,0,4.465-0.34
		c1.488-0.298,2.977-0.766,4.422-1.403c1.445-0.595,2.807-1.276,4.124-1.956c1.318-0.68,2.637-1.36,3.912-1.956
		c1.275-0.595,2.552-1.063,3.869-1.445c2.679-0.723,5.528-0.978,8.462-0.851c2.892,0.17,5.825,0.808,8.717,1.871
		c0,0-0.255-0.128-0.766-0.425c-0.128-0.085-0.255-0.127-0.425-0.213c-0.171-0.085-0.341-0.17-0.511-0.255s-0.383-0.17-0.595-0.298
		c-0.213-0.085-0.468-0.17-0.681-0.297c-1.956-0.766-4.805-1.616-8.249-1.744c-1.701-0.085-3.571,0.042-5.442,0.425
		c-1.914,0.34-3.784,0.978-5.698,1.829c-1.913,0.85-3.869,1.871-5.952,2.764c-2.041,0.893-4.295,1.616-6.506,1.828
		c4.21-1.488,7.653-4.337,11.65-6.335c1.956-1.021,4.124-1.743,6.208-2.083c2.083-0.34,4.082-0.34,5.953-0.127
		c1.828,0.213,3.486,0.68,4.89,1.19s2.594,1.105,3.486,1.701c0.213,0.127,0.468,0.255,0.638,0.382
		c0.213,0.128,0.383,0.255,0.553,0.383s0.341,0.255,0.468,0.34c0.128,0.127,0.255,0.212,0.383,0.297
		c0.425,0.383,0.681,0.553,0.681,0.553c-1.956-2.338-4.763-4.294-7.994-5.4s-6.803-1.403-10.29-0.808
		c-1.743,0.297-3.443,0.85-5.017,1.53c-1.531,0.681-2.935,1.446-4.253,2.169c-1.317,0.765-2.551,1.488-3.741,2.083
		c-1.148,0.638-2.296,1.148-3.444,1.573c-1.105,0.425-2.211,0.681-3.274,0.808c-1.062,0.127-2.04,0.085-2.976-0.085
		c-0.851-0.17-1.701-0.553-2.424-1.021s-1.318-1.021-1.786-1.616c-0.255-0.298-0.425-0.595-0.595-0.893
		c-0.171-0.297-0.298-0.595-0.426-0.893c-0.127-0.297-0.17-0.553-0.255-0.808c-0.043-0.255-0.085-0.51-0.128-0.723
		c0-0.213,0-0.425,0-0.596c0-0.17,0.043-0.297,0.043-0.425C107.743,73.955,107.743,73.827,107.743,73.827z"/>
</g>
<g>
	<path fill="#fdecba" d="M124.922,38.025c0,0-0.128,0.255-0.383,0.766c-0.213,0.51-0.511,1.275-0.808,2.296
		c-0.553,1.999-0.936,5.018-0.298,8.504c0.34,1.743,0.936,3.529,1.871,5.315c0.936,1.744,2.168,3.402,3.699,4.805
		c0.765,0.723,1.573,1.318,2.423,1.871c0.894,0.553,1.786,1.021,2.722,1.361c1.871,0.723,3.869,1.063,5.783,0.935
		c0,0-0.171-0.042-0.511-0.085s-0.808-0.17-1.445-0.383c-1.233-0.382-2.935-1.063-4.72-2.253c-1.786-1.19-3.699-2.934-5.146-5.188
		c-1.445-2.211-2.423-4.89-2.594-7.526c1.276,2.338,2.637,4.507,4.167,6.42c1.488,1.914,3.104,3.572,4.593,4.933
		c1.53,1.318,2.934,2.381,3.954,3.061c0.511,0.34,0.936,0.596,1.233,0.766s0.468,0.297,0.468,0.297
		c-2.722-2.679-5.061-5.229-7.102-7.823c-1.021-1.276-1.955-2.594-2.764-3.912c-0.808-1.318-1.573-2.636-2.168-3.954
		c-1.233-2.637-1.999-5.145-2.424-7.059c-0.213-0.936-0.34-1.743-0.425-2.296C124.964,38.323,124.922,38.025,124.922,38.025z"/>
</g>
</svg>
