<?xml version="1.0" encoding="utf-8"?>
<!-- Generator: Adobe Illustrator 16.0.0, SVG Export Plug-In . SVG Version: 6.00 Build 0)  -->
<!DOCTYPE svg PUBLIC "-//W3C//DTD SVG 1.1//EN" "http://www.w3.org/Graphics/SVG/1.1/DTD/svg11.dtd">
<svg version="1.1" id="Layer_1" xmlns="http://www.w3.org/2000/svg" xmlns:xlink="http://www.w3.org/1999/xlink" x="0px" y="0px"
	 width="1032px" height="188px" viewBox="82.5 950.5 1032 188" enable-background="new 82.5 950.5 1032 188" xml:space="preserve">
<g>
	<path fill="#e0b278" d="M565.991,1002.521c-4.388-2.203-9.386-3.15-14.518-3.358c-0.339-0.045-0.693-0.11-1.049-0.159
		c-16.345-2.115-32.016,4.612-45.36,13.375c-7.661,5.022-14.839,10.643-21.966,16.315c-25.069,18.016-53.814,38.991-85.48,35.995
		c-18.55-1.736-36.569-17.65-25.813-36.527c7.351-12.887,28.3-15.693,34.805-0.712c3.119,7.186-2.043,13.473-8.034,16.359
		c-12.988,6.553-17.704-14.603-7.094-14.249c5.299,0.154,8.026,5.682,3.709,9.468c10.616-6.527-4.323-17.724-12.184-7.442
		c-7.76,10.11,5.299,17.804,14.721,15.527c11.189-2.713,16.979-12.997,12.357-23.648c-5.397-12.424-22.408-10.419-32.016-5.543
		c-10.122,5.145-15.816,16.373-14.083,27.447c2.387,15.177,22.135,21.398,35.031,22.609c9.812,0.928,19.526-0.621,29.012-3.729
		c-18.811,8.727-38.825,15.022-59.293,17.714c-22.658,2.957-52.641,1.68-67.693-18.076c-7.208-9.475-11.212-17.522-12.061-29.801
		c-0.368-5.267,0.604-10.065,2.79-14.835c2.183-4.73,7.938-17.946-3.554-16.096c-3.727,0.598-6.541,5.169-8.249,8.097
		c-16.326,28.174,13.674,60.289,39.26,68.938c33.892,11.477,72.806,0.802,104.488-12.473c16.815-7.031,33.108-16.068,47.969-26.629
		c2.527-1.807,5.021-3.705,7.479-5.653c-41.266,39.81-100.02,76.739-159.029,74.315c-27.43-1.135-58.436-15.287-68.805-42.034
		c-4.447-11.484-4.564-26.39-1.297-38.072c2.021-7.235,5.35-13.095,8.901-19.545c6.242-11.342-6.687-12.049-12.477-4.413
		c-5.464,7.178-8.602,16.666-9.67,25.523c-1.892,15.543,2.838,38.793,15.433,49.602c-9.626-8.264-18.032-17.897-26.102-28.271
		c-11.682-15.034-21.151-30.659-40.289-36.353c-25.973-7.723-59.451,13.852-45.1,42.437c10.828,21.565,44.754,15.584,51.409-6.072
		c3.064-9.926-8.603-19.284-17.765-17.43c-12.902,2.614-15.673,16.925-2.757,20.784c-13.03-4.469,0.652-24.88,12.47-13.851
		c4.5,4.186,4.209,10.012,1.742,15.083c-6.729,13.823-25.793,15.278-36.229,5.75c-5.927-5.425-8.085-13.908-7.684-21.635
		c0.785-14.795,16.236-22.144,29.164-23.457c26.769-2.716,41.416,24.929,55.479,42.709c12.875,16.291,27.617,29.797,46.39,38.93
		c0.175,0.082,0.389,0.122,0.617,0.151c31.954,19.438,73.737,14.29,107.53,2.22c44.463-15.897,80.811-46.687,114.911-78.126
		c16.72-15.429,42.279-27.93,65.309-19.463c10.936,4.025,13.703,15.637,10.597,25.738c-3.355,11.008-16.174,16.092-26.721,14.668
		c-5.149-0.691-9.396-3.111-10.566-8.508c-0.732-3.33,0.622-10.947,5.021-11.765c-9.207,1.7-10.459,13.985-3.994,19.292
		c20.817,17.047,55.84-11.293,39.207-33.705c-0.092-0.126-0.214-0.248-0.312-0.378c8.841,5.498,15.947,13.18,19.056,22.456
		c3.05,9.085,0.681,18.512-4.347,26.442c-6.401,10.073-18.585,16.543-30.248,17.808c-10.141,1.098-26.753-4.579-29.913-15.612
		c3.077,10.74,11.076,18.036,22.346,19.761c29.331,4.518,53.93-20.252,46.822-49.639
		C594.711,1016.096,580.479,1007.182,565.991,1002.521z"/>
	<path fill="#e0b278" d="M171.617,1055.909c0.51,0.175,1.043,0.325,1.639,0.447C172.66,1056.234,172.148,1056.072,171.617,1055.909z
		"/>
	<path fill="#e0b278" d="M1014.16,1016.19c-19.126,5.692-28.604,21.317-40.28,36.352c-8.066,10.374-16.475,20.008-26.103,28.272
		c12.589-10.81,17.326-34.06,15.441-49.603c-1.084-8.857-4.213-18.345-9.668-25.523c-5.809-7.637-18.731-6.929-12.483,4.413
		c3.536,6.45,6.889,12.311,8.895,19.545c3.279,11.684,3.155,26.589-1.289,38.072c-10.368,26.747-41.388,40.899-68.794,42.034
		c-59.022,2.424-117.776-34.506-159.039-74.315c2.458,1.948,4.942,3.848,7.479,5.653c14.843,10.562,31.157,19.599,47.955,26.629
		c31.696,13.274,70.606,23.949,104.506,12.474c25.578-8.65,55.581-40.766,39.252-68.939c-1.714-2.928-4.523-7.499-8.245-8.097
		c-11.49-1.851-5.726,11.366-3.556,16.096c2.175,4.771,3.158,9.569,2.788,14.835c-0.83,12.277-4.844,20.325-12.05,29.801
		c-15.062,19.756-45.032,21.033-67.705,18.076c-20.47-2.691-40.479-8.986-59.286-17.714c9.492,3.107,19.197,4.656,29.014,3.729
		c12.892-1.213,32.633-7.435,35.019-22.61c1.738-11.074-3.943-22.302-14.075-27.447c-9.614-4.876-26.619-6.881-32.009,5.543
		c-4.628,10.651,1.161,20.936,12.346,23.648c9.438,2.276,22.475-5.417,14.734-15.527c-7.877-10.28-22.807,0.915-12.192,7.442
		c-4.321-3.786-1.594-9.313,3.709-9.467c10.606-0.354,5.891,20.801-7.084,14.249c-5.992-2.888-11.167-9.175-8.058-16.36
		c6.519-14.981,27.471-12.176,34.814,0.712c10.761,18.878-7.259,34.791-25.809,36.527c-31.666,2.997-60.419-17.979-85.48-35.995
		c-7.141-5.673-14.305-11.293-21.966-16.315c-13.349-8.764-29.02-15.489-45.368-13.375c-0.348,0.05-0.702,0.114-1.037,0.159
		c-5.14,0.207-10.138,1.155-14.532,3.359c-14.488,4.66-28.714,13.575-32.271,28.259c-7.106,29.386,17.495,54.156,46.83,49.638
		c11.263-1.724,19.271-9.02,22.354-19.76c-3.172,11.033-19.791,16.71-29.921,15.612c-11.678-1.266-23.849-7.735-30.239-17.809
		c-5.045-7.93-7.405-17.356-4.355-26.441c3.105-9.276,10.215-16.958,19.065-22.456c-0.114,0.13-0.23,0.252-0.319,0.378
		c-16.643,22.412,18.396,50.753,39.197,33.705c6.468-5.308,5.213-17.593-3.99-19.292c4.402,0.816,5.753,8.434,5.021,11.765
		c-1.174,5.396-5.411,7.816-10.563,8.507c-10.543,1.423-23.369-3.66-26.729-14.668c-3.1-10.102-0.327-21.712,10.605-25.737
		c23.024-8.468,48.591,4.033,65.307,19.463c34.092,31.439,70.452,62.229,114.911,78.126c33.79,12.069,75.575,17.218,107.526-2.221
		c0.229-0.028,0.433-0.068,0.62-0.15c18.76-9.134,33.503-22.639,46.389-38.93c14.065-17.78,28.711-45.426,55.488-42.709
		c12.899,1.313,28.373,8.661,29.142,23.457c0.415,7.726-1.736,16.209-7.666,21.635c-10.429,9.527-29.516,8.072-36.229-5.75
		c-2.46-5.071-2.753-10.899,1.729-15.083c11.818-11.029,25.523,9.382,12.476,13.851c12.92-3.859,10.161-18.17-2.739-20.785
		c-9.17-1.854-20.84,7.503-17.79,17.431c6.667,21.654,40.592,27.638,51.401,6.071
		C1073.634,1030.041,1040.13,1008.467,1014.16,1016.19z"/>
	<path fill="#e0b278" d="M1028.378,1055.909c-0.523,0.163-1.035,0.325-1.632,0.447
		C1027.343,1056.234,1027.882,1056.084,1028.378,1055.909z"/>
</g>
</svg>
