<?xml version="1.0" encoding="utf-8"?>
<!-- Generator: Adobe Illustrator 16.0.0, SVG Export Plug-In . SVG Version: 6.00 Build 0)  -->
<!DOCTYPE svg PUBLIC "-//W3C//DTD SVG 1.1//EN" "http://www.w3.org/Graphics/SVG/1.1/DTD/svg11.dtd">
<svg version="1.1" id="Layer_1" xmlns="http://www.w3.org/2000/svg" xmlns:xlink="http://www.w3.org/1999/xlink" x="0px" y="0px"
	 width="1200px" height="1200px" viewBox="0 0 1200 1200" enable-background="new 0 0 1200 1200" xml:space="preserve">
<g>
	<path fill="#F4E8BC" d="M133.171,464.673c-2.517,0.032-5.06,0-7.57-0.126c-4.085-0.215-11.06,0.168-13.327-4.093
		c-2.097-3.984,1.773-6.99,4.673-8.932c-3.486,2.383-0.907,6.959,2.404,7.793c1.167,0.305,2.374,0.199,3.595-0.179
		c-0.84-0.708-1.495-1.674-1.915-2.624c-0.766-1.716-0.773-3.2,0.092-4.728c0.092-0.199,0.21-0.378,0.354-0.551
		c-0.132,0.184-0.249,0.373-0.354,0.551c-0.627,1.285-0.315,2.876,0.394,4.103c0.434,0.735,1.493,2.026,2.619,2.792
		c1.034-0.472,2.049-1.087,3.007-1.8c-1.037-0.635-1.947-1.575-2.419-2.619c-0.874-1.941-0.076-3.186,0.766-4.917
		c-0.405,0.846-0.797,1.632-0.721,2.599c0.066,0.839,0.548,1.795,1.115,2.414c0.583,0.666,1.285,1.312,2.096,1.679
		c0.059,0.032,0.121,0.053,0.171,0.074c1.076-0.888,2.073-1.837,2.915-2.708c-0.613-0.404-1.156-0.992-1.546-1.449
		c-1.052-1.275-0.937-2.142-0.845-3.727c-0.107,1.731,1.349,3.736,3.094,4.425c0.157-0.179,0.312-0.352,0.462-0.521
		c0.698-0.792,1.357-1.621,1.945-2.467c-1.512-0.619-2.483-2.55-1.908-4.082c-0.601,1.627,0.977,2.839,2.542,3.122
		c0.567-0.939,1.066-1.889,1.483-2.881c-0.84-0.437-1.522-1.243-1.401-2.184c0.215,1.002,0.887,1.417,1.677,1.49
		c1.073-2.881,1.377-5.972,0.549-9.194c0.23,5.889-4.603,8.171-9.557,9.562c-4.487,1.264-9.314,1.563-13.542,3.668
		c-3.355,1.658-6.463,6.312-4.967,10.065c0.104,0.294,0.228,0.546,0.362,0.803c2.862,5.6,10.559,5.982,15.975,5.558
		C128.005,465.381,130.547,465.02,133.171,464.673z"/>
	<path fill="#F4E8BC" d="M195.852,505.188c0.123,0.665,0.236,1.326,0.333,1.993C196.088,506.525,195.975,505.853,195.852,505.188z"
		/>
	<path fill="#F4E8BC" d="M85.557,504.588c7.701-5.074,14.891-10.842,22.175-16.478c15.03-11.635,29.499-26.879,50.277-20.703
		c17.735,5.258,34.292,19.008,37.842,37.78c-0.512-2.929-1.289-5.811-2.335-8.617c-6.606-17.849-24.578-32.085-43.237-33.508
		c-15.651-1.182-31.229,9.703-43.944,17.496c-6.004,3.71-12.729,7.468-20.026,7.205c-7.032-0.272-12.393-6.812-12.293-13.755
		c0-0.708,0.063-1.6,0.197-2.519c0.521,1.433,1.579,2.634,3.253,3.231c3.487,1.219,7.843-1.852,8.137-5.536
		c0.262-3.338-2.721-5.962-5.984-5.92c-4.479,0.042-7.447,3.853-8.348,7.945c-1.265,5.783,0.612,11.939,4.983,15.948
		c4.49,4.141,11.123,4.009,16.67,2.425c6.426-1.821,12.049-5.369,17.654-8.88c3.536-2.215,7.162-4.261,10.887-6.129
		c-1.181,0.896-2.343,1.789-3.5,2.691c-6.83,5.337-13.66,10.663-20.551,15.906c-6.231,4.739-12.671,10.653-20.097,13.493
		c-4.698,1.8-9.092,2.687-13.97,0.85c-4.734-1.789-9.443-5.143-9.145-10.627c0.191,1.91,3.351,3.364,4.752,3.448
		c2.459,0.168,5.038-1.076,6.376-3.18c2.503-3.937,0.521-9.824-4.4-10.396c-3.757-0.44-7.709,2.058-9.546,5.232
		c-3.052,5.273-0.695,10.674,3.579,14.552c2.761,2.493,6.589,4.298,10.244,4.812C72.745,512.381,79.496,508.593,85.557,504.588z"/>
	<path fill="#F4E8BC" d="M118.377,481.655c1.239-1.191,2.595-2.246,3.828-3.422c-5.5,3.573-10.837,8.916-15.229,13.77
		c-5.715,6.318-13.021,13.807-11.967,23.127c0.627,5.562,5.043,10.191,10.265,12.301c2.162,0.866,4.463,1.303,6.687,1.207
		c-1.378-0.425-2.937-1.333-4.17-2.388c-0.664,0.011-1.335,0.22-1.606,0.698c-0.055-0.636,0.385-1.098,0.952-1.317
		c-0.226-0.236-0.42-0.462-0.606-0.709c-0.215-0.294-0.4-0.593-0.556-0.896c-0.905,0.283-1.921,0.835-1.902,1.627
		c-0.154-1.076,0.538-2.078,1.562-2.404c-0.249-0.703-0.37-1.427-0.383-2.167c-0.017-0.011-0.037-0.021-0.049-0.032
		c-1.515-0.829-4.897-1.558-6.08,0.185c0.711-2.305,4.229-2.125,6.191-1.281c0.05-0.462,0.157-0.908,0.273-1.364
		c-0.184-0.435-0.407-0.859-0.664-1.26c-1.302-2.004-4.447-4.938-6.836-2.676c0.218-0.504,0.585-0.735,1.028-1.014
		c1.278-0.803,2.448-0.545,3.798,0.105c1.025,0.493,2.621,1.821,3.281,3.19c0.362-0.813,0.821-1.601,1.333-2.294
		c0.063-0.099,0.14-0.193,0.212-0.289c-0.033-0.215-0.073-0.435-0.126-0.64c-0.795-3.663-3.044-5.93-6.824-5.657
		c2.663-1.521,7.63,1.496,8.33,4.613c0.832-0.961,1.697-1.952,2.393-3.007c-0.089-0.33-0.213-0.677-0.341-1.002
		c-0.995-2.446-3.828-6.245-6.896-5.92c2.895-0.688,6.827,2.34,8.068,5.431c0.354-0.803,0.559-1.658,0.538-2.566
		c-0.113-3.679-3.534-6.826-7.137-6.103c0.837-3.112,1.887-5.516,3.844-8.108C112.195,487.931,115.242,484.662,118.377,481.655z"/>
	<path fill="#F4E8BC" d="M130.681,514.586c2.304-2.876,1.847-7.069-1.037-9.383c-2.879-2.294-7.082-1.837-9.389,1.044
		c-2.306,2.876-1.831,7.085,1.037,9.389C124.179,517.95,128.38,517.477,130.681,514.586z"/>
	<path fill="#F4E8BC" d="M190.838,581.229c0.854-1.024,2.031-1.91,3.611-2.771c-2.544,0.126-6.551,1.485-8.771,2.624
		c-5.14,2.635-8.813,8.192-9.625,13.87c-0.782,5.363,1.876,9.41,5.87,12.794c-1.965-1.674-3.511-4.114-4.146-6.612
		c-0.45-1.736-0.823-6.324,0.636-7.594c0.238,1.695,1.894,3.574,3.656,3.49c0.648-0.032,1.266-0.257,1.838-0.599
		c-0.577-0.226-1.118-0.467-1.641-0.918c-0.512-0.436-1.151-0.938-1.438-1.575c-0.306-0.677-0.147-1.464-0.147-2.193
		c0,0.44,0.116,0.835,0.311,1.218c0.776,1.611,2.424,2.688,4.091,2.508c0.595-0.599,1.099-1.321,1.548-2.089
		c-0.234-0.062-0.476-0.142-0.711-0.226c-2.388-0.809-3.563-2.698-4.484-4.875c0.454,1.069,1.669,2.251,2.537,2.985
		c0.74,0.631,1.973,1.291,3.061,1.344c0.369-0.75,0.677-1.527,0.909-2.268c-0.509-0.132-1.002-0.257-1.484-0.529
		c-1.737-1.003-4.12-2.75-3.901-5.044c0.031,0.362,0.185,0.688,0.362,0.992c0.523,0.888,1.313,1.807,2.141,2.398
		c0.651,0.472,2.112,1.286,3.136,1.328c0.185-0.678,0.3-1.328,0.354-1.868c0.013-0.189,0.037-0.378,0.066-0.566
		c-0.777-0.403-1.431-0.771-2.075-1.512c-0.701-0.782-1.347-1.994-0.958-3.086c-0.037,1.464,1.57,3.532,3.122,3.915
		c0.128-0.861,0.31-1.644,0.551-2.367c-0.872-0.478-1.401-2.262-1.187-3.018c-0.134,0.692,0.616,2.079,1.411,2.439
		c0.273-0.64,0.617-1.228,1.021-1.778c-0.236-0.463-0.199-1.123,0.092-1.517C190.577,580.462,190.622,580.945,190.838,581.229z"/>
	<path fill="#F4E8BC" d="M175.445,623.846c0.182,7.321,6.744,9.247,12.781,9.431c-1.621-0.042-3.372-0.499-4.739-1.417
		c-0.198,0.126-0.383,0.272-0.543,0.415c-0.025-0.205,0.059-0.437,0.202-0.651c-0.526-0.415-0.976-0.893-1.327-1.459
		c-0.624,0-1.268,0.252-1.689,0.651c0.328-0.72,0.808-1.112,1.42-1.182c-0.213-0.44-0.354-0.955-0.422-1.512
		c-0.026-0.304-0.026-0.619,0.016-0.945c-1.039-0.635-2.348-1.28-3.537-0.876c0.535-0.866,2.632-0.866,3.764-0.299
		c0.19-0.745,0.433-1.527,0.593-2.288c-1.083-1.233-2.548-2.152-4.253-1.831c1.487-1.002,3.316-0.257,4.39,0.992
		c0.105-0.96-0.013-1.879-0.666-2.698c-0.593-0.724-3.569-1.837-3.582-0.173c0.013-3.296,4.243-4.529,6.982-4.277
		C179.142,614.033,175.314,618.43,175.445,623.846z"/>
	<path fill="#F4E8BC" d="M292.3,612.081c-7.124,4.728-15.003,8.501-23.466,9.609c-10.935,1.433-22.223-1.087-31.952-6.183
		c-3.873-2.031-7.273-4.408-10.653-7.2c-4.925-4.062-8.67-7.809-12.66-12.73c-13.162-16.2-22.321-42.183-8.961-60.96
		c0.771-1.098,1.65-2.083,2.577-3.002c4.652-5.258,10.506-9.441,17.496-9.666c-0.021,0-0.037-0.011-0.057-0.011
		c-8.071-0.115-15.968,3.632-20.997,9.977c-4.083,5.138-6.342,10.742-7.276,16.531c-0.032-0.116-0.045-0.21-0.067-0.326
		c-0.513-5.432-0.919-10.905-1.515-16.336c-1.33-12.229-3.545-24.603-10.553-34.966c-6.19-9.147-15.111-17.671-25.82-21.155
		c-10.433-3.384-21.291-1.055-29.38,6.401c-7.806,7.222-10.821,17.439-10.278,27.956c-0.354-11.324,6.101-25.043,16.192-30.632
		c10.511-5.825,22.938-2.298,32.104,4.45c7.179,5.274,13.531,12.417,17.606,20.498c-1.546-2.388-3.369-4.65-5.518-6.733
		c-5.682-5.473-13.593-9.268-21.443-6.187c-8.284,3.243-13.338,10.617-12.703,19.627c0.101,1.349,0.464,2.703,1.042,3.941
		c-1.785-4.203,1.033-11.104,3.475-14.164c3.081-3.853,7.224-7.469,12.442-7.6c7.761-0.215,14.447,5.416,18.577,11.546
		c4.865,7.185,7.289,15.093,8.935,23.237c-0.347-0.499-0.722-0.981-1.117-1.459c-2.952-3.542-7.332-6.833-12.23-5.983
		c-5.479,0.945-10.834,6.629-9.918,12.47c0.185,1.721,1.019,3.369,2.464,4.528c2.887,2.299,7.092,1.843,9.39-1.033
		c2.306-2.887,1.847-7.091-1.029-9.394c-2.595-2.083-6.271-1.889-8.659,0.278c2.556-3.542,7.114-5.62,11.317-3.574
		c4.455,2.173,7.628,6.497,9.559,10.968c3.834,8.844,3.763,18.567,5.633,27.882c1.438,9.227,3.839,18.3,8.604,26.36
		c7.455,12.621,18.664,23.448,32.022,29.667c13.12,6.113,27.844,7.672,41.65,2.86c1.76-0.609,3.481-1.286,5.187-2.036
		c-17.843,12.562-39.85,16.583-61.334,10.742c-24.335-6.628-45.796-23.831-60.072-44.435c1.26,1.827,2.538,3.632,3.814,5.391
		c14.906,20.472,31.587,36.865,57.965,42.628c25.232,5.516,51.253-2.935,70.697-19.224c6.623-5.557,12.666-12.064,18.223-18.667
		C305.346,601.48,299.301,607.452,292.3,612.081z"/>
	<path fill="#F4E8BC" d="M156.479,507.249c-2.884-2.304-7.084-1.848-9.398,1.033c-2.302,2.866-1.834,7.085,1.042,9.394
		c2.878,2.298,7.079,1.837,9.388-1.049C159.82,513.756,159.353,509.553,156.479,507.249z"/>
	<path fill="#F4E8BC" d="M293.16,595.214c2.464-2.74,4.804-5.505,7.149-7.363c-1.398,1.103-3.086,2.31-4.733,3.023
		c-7.247,3.19-13.055-3.044-19.873-4.203c-8.592-1.475-17.082,5.62-18.762,13.786c-2.188,10.579,12.941,21.17,22.445,16.148
		c-7.155,1.075-15.345-2.72-18.184-9.557c-2.359-5.679,3.923-18.798,11.393-14.385c-2.498,0.63-4.13,3.207-3.707,5.762
		c0.479,2.965,3.545,5.715,6.41,6.413c-1.947-3.819-0.748-9.062,3.604-10.857c-2.4,1.097-2.839,3.73-2.649,6.203
		c0.128,1.837,1.06,3.405,2.624,4.387c0.247,0.157,0.509,0.278,0.758,0.373c1.377-0.236,2.669-0.698,3.907-1.333
		c-0.185-0.137-0.368-0.262-0.543-0.42c-1.569-1.308-2.327-2.977-1.868-5.022c0.504-2.215,2.068-2.655,3.409-4.146
		c-1.341,1.491-2.485,3.558-1.706,5.579c0.479,1.302,1.548,2.346,2.805,2.755c0.9-0.635,1.77-1.338,2.619-2.1
		c-2.015-1.679-2.802-5.416,0.22-6.381c-1.28,1.448-0.367,4.125,1.263,5.001c0.98-0.971,1.931-1.994,2.862-3.033
		c-0.588-0.797-0.711-1.769,0.362-2.503C292.274,594.201,292.565,594.831,293.16,595.214z"/>
	<path fill="#F4E8BC" d="M279.424,616.583c-0.011,0-0.024,0.01-0.037,0.021c0.013,0,0.026-0.011,0.037-0.011
		C279.571,616.52,279.571,616.52,279.424,616.583z"/>
</g>
<g>
	<path fill="#F4E8BC" d="M1066.834,464.673c2.515,0.032,5.049,0,7.57-0.126c4.083-0.215,11.065,0.168,13.327-4.093
		c2.103-3.984-1.779-6.99-4.676-8.932c3.484,2.383,0.914,6.959-2.409,7.793c-1.165,0.305-2.375,0.199-3.59-0.179
		c0.84-0.708,1.493-1.674,1.916-2.624c0.761-1.716,0.773-3.2-0.094-4.728c-0.09-0.199-0.216-0.378-0.354-0.551
		c0.134,0.184,0.252,0.373,0.354,0.551c0.632,1.285,0.325,2.876-0.392,4.103c-0.433,0.735-1.496,2.026-2.624,2.792
		c-1.034-0.472-2.044-1.087-3.005-1.8c1.039-0.635,1.95-1.575,2.417-2.619c0.871-1.941,0.087-3.186-0.761-4.917
		c0.412,0.846,0.793,1.632,0.722,2.599c-0.068,0.839-0.554,1.795-1.115,2.414c-0.588,0.666-1.285,1.312-2.097,1.679
		c-0.068,0.032-0.12,0.053-0.173,0.074c-1.081-0.888-2.071-1.837-2.91-2.708c0.616-0.404,1.154-0.992,1.543-1.449
		c1.055-1.275,0.942-2.142,0.842-3.727c0.11,1.731-1.355,3.736-3.094,4.425c-0.157-0.179-0.314-0.352-0.453-0.521
		c-0.706-0.792-1.359-1.621-1.958-2.467c1.515-0.619,2.485-2.55,1.91-4.082c0.609,1.627-0.966,2.839-2.54,3.122
		c-0.569-0.939-1.064-1.889-1.488-2.881c0.849-0.437,1.525-1.243,1.412-2.184c-0.213,1.002-0.895,1.417-1.687,1.49
		c-1.068-2.881-1.375-5.972-0.543-9.194c-0.229,5.889,4.6,8.171,9.557,9.562c4.484,1.264,9.315,1.563,13.529,3.668
		c3.369,1.658,6.483,6.312,4.985,10.065c-0.107,0.294-0.226,0.546-0.369,0.803c-2.855,5.6-10.552,5.982-15.962,5.558
		C1071.998,465.381,1069.462,465.02,1066.834,464.673z"/>
	<path fill="#F4E8BC" d="M1004.152,505.188c-0.131,0.665-0.241,1.326-0.341,1.993
		C1003.919,506.525,1004.036,505.853,1004.152,505.188z"/>
	<path fill="#F4E8BC" d="M1114.448,504.588c-7.703-5.074-14.893-10.842-22.177-16.478c-15.03-11.635-29.496-26.879-50.282-20.703
		c-17.725,5.258-34.298,19.008-37.838,37.78c0.518-2.929,1.286-5.811,2.336-8.617c6.604-17.849,24.581-32.085,43.237-33.508
		c15.652-1.182,31.229,9.703,43.941,17.496c6.006,3.71,12.735,7.468,20.022,7.205c7.046-0.272,12.404-6.812,12.301-13.755
		c-0.005-0.708-0.071-1.6-0.19-2.519c-0.528,1.433-1.583,2.634-3.263,3.231c-3.486,1.219-7.848-1.852-8.139-5.536
		c-0.265-3.338,2.726-5.962,5.975-5.92c4.495,0.042,7.46,3.853,8.357,7.945c1.267,5.783-0.606,11.939-4.972,15.948
		c-4.5,4.141-11.129,4.009-16.679,2.425c-6.413-1.821-12.055-5.369-17.653-8.88c-3.537-2.215-7.161-4.261-10.893-6.129
		c1.182,0.896,2.354,1.789,3.508,2.691c6.827,5.337,13.663,10.663,20.543,15.906c6.239,4.739,12.671,10.653,20.102,13.493
		c4.707,1.8,9.094,2.687,13.964,0.85c4.739-1.789,9.452-5.143,9.152-10.627c-0.191,1.91-3.354,3.364-4.754,3.448
		c-2.459,0.168-5.033-1.076-6.374-3.18c-2.5-3.937-0.521-9.824,4.402-10.396c3.752-0.44,7.709,2.058,9.543,5.232
		c3.046,5.273,0.688,10.674-3.579,14.552c-2.76,2.493-6.591,4.298-10.245,4.812C1127.248,512.381,1120.505,508.593,1114.448,504.588
		z"/>
	<path fill="#F4E8BC" d="M1081.629,481.655c-1.244-1.191-2.596-2.246-3.823-3.422c5.495,3.573,10.826,8.916,15.219,13.77
		c5.718,6.318,13.021,13.807,11.971,23.127c-0.63,5.562-5.046,10.191-10.27,12.301c-2.159,0.866-4.466,1.303-6.687,1.207
		c1.386-0.425,2.944-1.333,4.172-2.388c0.673,0.011,1.339,0.22,1.608,0.698c0.045-0.636-0.391-1.098-0.95-1.317
		c0.217-0.236,0.42-0.462,0.604-0.709c0.223-0.294,0.404-0.593,0.549-0.896c0.905,0.283,1.931,0.835,1.908,1.627
		c0.165-1.076-0.546-2.078-1.56-2.404c0.249-0.703,0.375-1.427,0.39-2.167c0.01-0.011,0.036-0.021,0.045-0.032
		c1.511-0.829,4.896-1.558,6.077,0.185c-0.711-2.305-4.228-2.125-6.189-1.281c-0.053-0.462-0.16-0.908-0.272-1.364
		c0.184-0.435,0.403-0.859,0.666-1.26c1.296-2.004,4.444-4.938,6.83-2.676c-0.216-0.504-0.585-0.735-1.034-1.014
		c-1.275-0.803-2.438-0.545-3.784,0.105c-1.031,0.493-2.629,1.821-3.282,3.19c-0.368-0.813-0.829-1.601-1.331-2.294
		c-0.067-0.099-0.146-0.193-0.218-0.289c0.034-0.215,0.071-0.435,0.115-0.64c0.803-3.663,3.044-5.93,6.824-5.657
		c-2.652-1.521-7.616,1.496-8.331,4.613c-0.823-0.961-1.689-1.952-2.382-3.007c0.089-0.33,0.207-0.677,0.336-1.002
		c0.997-2.446,3.833-6.245,6.898-5.92c-2.893-0.688-6.833,2.34-8.071,5.431c-0.354-0.803-0.562-1.658-0.538-2.566
		c0.116-3.679,3.534-6.826,7.143-6.103c-0.84-3.112-1.89-5.516-3.842-8.108C1087.808,487.931,1084.757,484.662,1081.629,481.655z"/>
	<path fill="#F4E8BC" d="M1069.325,514.586c-2.306-2.876-1.845-7.069,1.034-9.383c2.885-2.294,7.079-1.837,9.389,1.044
		c2.307,2.876,1.839,7.085-1.039,9.389C1075.827,517.95,1071.632,517.477,1069.325,514.586z"/>
	<path fill="#F4E8BC" d="M1009.169,581.229c-0.866-1.024-2.033-1.91-3.605-2.771c2.529,0.126,6.539,1.485,8.764,2.624
		c5.136,2.635,8.81,8.192,9.622,13.87c0.774,5.363-1.889,9.41-5.861,12.794c1.955-1.674,3.494-4.114,4.138-6.612
		c0.454-1.736,0.815-6.324-0.644-7.594c-0.223,1.695-1.887,3.574-3.649,3.49c-0.659-0.032-1.268-0.257-1.837-0.599
		c0.577-0.226,1.115-0.467,1.64-0.918c0.509-0.436,1.154-0.938,1.425-1.575c0.32-0.677,0.163-1.464,0.163-2.193
		c0,0.44-0.121,0.835-0.31,1.218c-0.782,1.611-2.419,2.688-4.1,2.508c-0.588-0.599-1.099-1.321-1.546-2.089
		c0.241-0.062,0.478-0.142,0.711-0.226c2.389-0.809,3.562-2.698,4.492-4.875c-0.456,1.069-1.679,2.251-2.545,2.985
		c-0.743,0.631-1.979,1.291-3.057,1.344c-0.362-0.75-0.674-1.527-0.914-2.268c0.509-0.132,0.997-0.257,1.491-0.529
		c1.736-1.003,4.113-2.75,3.901-5.044c-0.031,0.362-0.186,0.688-0.356,0.992c-0.538,0.888-1.325,1.807-2.159,2.398
		c-0.638,0.472-2.107,1.286-3.125,1.328c-0.176-0.678-0.299-1.328-0.354-1.868c-0.013-0.189-0.039-0.378-0.065-0.566
		c0.766-0.403,1.433-0.771,2.073-1.512c0.697-0.782,1.348-1.994,0.955-3.086c0.033,1.464-1.564,3.532-3.12,3.915
		c-0.131-0.861-0.308-1.644-0.548-2.367c0.862-0.478,1.393-2.262,1.183-3.018c0.134,0.692-0.612,2.079-1.412,2.439
		c-0.27-0.64-0.606-1.228-1.018-1.778c0.238-0.463,0.194-1.123-0.095-1.517C1009.421,580.462,1009.385,580.945,1009.169,581.229z"/>
	<path fill="#F4E8BC" d="M1024.553,623.846c-0.178,7.321-6.741,9.247-12.784,9.431c1.627-0.042,3.369-0.499,4.741-1.417
		c0.202,0.126,0.383,0.272,0.543,0.415c0.025-0.205-0.058-0.437-0.199-0.651c0.525-0.415,0.977-0.893,1.325-1.459
		c0.63,0,1.274,0.252,1.692,0.651c-0.328-0.72-0.806-1.112-1.423-1.182c0.212-0.44,0.359-0.955,0.429-1.512
		c0.025-0.304,0.025-0.619-0.017-0.945c1.037-0.635,2.352-1.28,3.532-0.876c-0.53-0.866-2.629-0.866-3.763-0.299
		c-0.187-0.745-0.437-1.527-0.594-2.288c1.087-1.233,2.557-2.152,4.262-1.831c-1.483-1.002-3.317-0.257-4.403,0.992
		c-0.097-0.96,0.021-1.879,0.677-2.698c0.583-0.724,3.569-1.837,3.58-0.173c-0.011-3.296-4.24-4.529-6.987-4.277
		C1020.856,614.033,1024.69,618.43,1024.553,623.846z"/>
	<path fill="#F4E8BC" d="M907.701,612.081c7.135,4.728,15.004,8.501,23.467,9.609c10.929,1.433,22.222-1.087,31.943-6.183
		c3.881-2.031,7.284-4.408,10.667-7.2c4.915-4.062,8.659-7.809,12.658-12.73c13.17-16.2,22.319-42.183,8.96-60.96
		c-0.773-1.098-1.656-2.083-2.582-3.002c-4.649-5.258-10.504-9.441-17.491-9.666c0.014,0,0.037-0.011,0.056-0.011
		c8.073-0.115,15.966,3.632,21.002,9.977c4.069,5.138,6.337,10.742,7.275,16.531c0.024-0.116,0.045-0.21,0.063-0.326
		c0.512-5.432,0.918-10.905,1.519-16.336c1.328-12.229,3.534-24.603,10.543-34.966c6.19-9.147,15.117-17.671,25.828-21.155
		c10.428-3.384,21.291-1.055,29.378,6.401c7.804,7.222,10.816,17.439,10.28,27.956c0.348-11.324-6.103-25.043-16.197-30.632
		c-10.509-5.825-22.936-2.298-32.099,4.45c-7.179,5.274-13.537,12.417-17.609,20.498c1.545-2.388,3.364-4.65,5.526-6.733
		c5.67-5.473,13.592-9.268,21.427-6.187c8.294,3.243,13.343,10.617,12.718,19.627c-0.104,1.349-0.472,2.703-1.049,3.941
		c1.784-4.203-1.028-11.104-3.483-14.164c-3.075-3.853-7.213-7.469-12.433-7.6c-7.764-0.215-14.444,5.416-18.571,11.546
		c-4.867,7.185-7.292,15.093-8.942,23.237c0.354-0.499,0.721-0.981,1.118-1.459c2.952-3.542,7.331-6.833,12.225-5.983
		c5.481,0.945,10.845,6.629,9.918,12.47c-0.176,1.721-1.008,3.369-2.458,4.528c-2.881,2.299-7.09,1.843-9.391-1.033
		c-2.301-2.887-1.845-7.091,1.034-9.394c2.598-2.083,6.273-1.889,8.664,0.278c-2.564-3.542-7.116-5.62-11.317-3.574
		c-4.458,2.173-7.63,6.497-9.572,10.968c-3.828,8.844-3.755,18.567-5.626,27.882c-1.44,9.227-3.839,18.3-8.604,26.36
		c-7.452,12.621-18.669,23.448-32.016,29.667c-13.13,6.113-27.84,7.672-41.656,2.86c-1.753-0.609-3.488-1.286-5.178-2.036
		c17.827,12.562,39.839,16.583,61.321,10.742c24.34-6.628,45.801-23.831,60.078-44.435c-1.262,1.827-2.537,3.632-3.823,5.391
		c-14.901,20.472-31.589,36.865-57.96,42.628c-25.232,5.516-51.245-2.935-70.694-19.224c-6.628-5.557-12.663-12.064-18.226-18.667
		C894.656,601.48,900.7,607.452,907.701,612.081z"/>
	<path fill="#F4E8BC" d="M1043.527,507.249c2.878-2.304,7.082-1.848,9.396,1.033c2.302,2.866,1.834,7.085-1.048,9.394
		c-2.873,2.298-7.073,1.837-9.389-1.049C1040.187,513.756,1040.654,509.553,1043.527,507.249z"/>
	<path fill="#F4E8BC" d="M906.832,595.214c-2.45-2.74-4.788-5.505-7.147-7.363c1.406,1.103,3.094,2.31,4.739,3.023
		c7.253,3.19,13.057-3.044,19.874-4.203c8.588-1.475,17.075,5.62,18.761,13.786c2.191,10.579-12.939,21.17-22.443,16.148
		c7.166,1.075,15.346-2.72,18.185-9.557c2.355-5.679-3.92-18.798-11.398-14.385c2.508,0.63,4.128,3.207,3.715,5.762
		c-0.484,2.965-3.555,5.715-6.413,6.413c1.947-3.819,0.747-9.062-3.603-10.857c2.397,1.097,2.836,3.73,2.644,6.203
		c-0.128,1.837-1.06,3.405-2.619,4.387c-0.25,0.157-0.512,0.278-0.766,0.373c-1.375-0.236-2.658-0.698-3.902-1.333
		c0.185-0.137,0.367-0.262,0.544-0.42c1.563-1.308,2.326-2.977,1.87-5.022c-0.512-2.215-2.074-2.655-3.408-4.146
		c1.333,1.491,2.477,3.558,1.708,5.579c-0.485,1.302-1.552,2.346-2.813,2.755c-0.905-0.635-1.768-1.338-2.607-2.1
		c2-1.679,2.786-5.416-0.236-6.381c1.278,1.448,0.375,4.125-1.26,5.001c-0.977-0.971-1.93-1.994-2.855-3.033
		c0.596-0.797,0.706-1.769-0.37-2.503C907.728,594.201,907.442,594.831,906.832,595.214z"/>
	<path fill="#F4E8BC" d="M920.579,616.583c0.014,0,0.026,0.01,0.037,0.021c-0.01,0-0.023-0.011-0.037-0.011
		C920.431,616.52,920.431,616.52,920.579,616.583z"/>
</g>
<path fill="#F4E8BC" d="M144.711,849.331c0.136,3.401,0.181,6.812,0.092,10.249c-0.128,5.505,0.645,14.935-5.051,18.142
	c-5.285,2.991-9.498-2.141-12.243-5.992c3.356,4.634,9.449,0.971,10.472-3.532c0.364-1.579,0.17-3.217-0.391-4.85
	c-0.931,1.16-2.202,2.078-3.463,2.677c-2.307,1.107-4.307,1.17-6.402,0.053c-0.257-0.116-0.52-0.257-0.766-0.457
	c0.26,0.178,0.523,0.331,0.766,0.457c1.773,0.813,3.888,0.341,5.526-0.682c0.994-0.599,2.693-2.078,3.676-3.621
	c-0.664-1.392-1.538-2.734-2.538-4.021c-0.816,1.434-2.044,2.703-3.445,3.374c-2.59,1.239-4.313,0.227-6.673-0.866
	c1.14,0.53,2.226,1.019,3.534,0.888c1.131-0.116,2.404-0.809,3.225-1.579c0.876-0.814,1.72-1.795,2.194-2.913
	c0.026-0.084,0.057-0.147,0.081-0.22c-1.233-1.422-2.553-2.734-3.781-3.853c-0.501,0.839-1.283,1.606-1.887,2.142
	c-1.674,1.479-2.852,1.354-4.995,1.28c2.319,0.084,4.995-1.963,5.862-4.351c-0.249-0.185-0.486-0.409-0.725-0.609
	c-1.086-0.908-2.215-1.752-3.392-2.528c-0.785,2.072-3.356,3.447-5.445,2.729c2.212,0.761,3.794-1.427,4.12-3.553
	c-1.27-0.719-2.579-1.385-3.923-1.9c-0.577,1.149-1.658,2.11-2.926,1.983c1.335-0.336,1.881-1.265,1.963-2.33
	c-3.933-1.343-8.137-1.648-12.443-0.394c7.943-0.556,11.194,5.909,13.262,12.563c1.867,5.993,2.45,12.532,5.446,18.142
	c2.369,4.509,8.782,8.55,13.789,6.381c0.38-0.156,0.748-0.336,1.084-0.524c7.455-4.093,7.681-14.484,6.914-21.795
	C145.842,856.28,145.257,852.869,144.711,849.331z"/>
<path fill="#F4E8BC" d="M197.187,763.119c0.896-0.189,1.789-0.367,2.695-0.509C198.982,762.752,198.093,762.952,197.187,763.119z"/>
<path fill="#F4E8BC" d="M200.399,912.227c-7.152-10.212-15.199-19.736-23.085-29.356c-16.284-19.895-37.403-38.908-29.82-67.209
	c6.463-24.161,24.443-47.058,49.693-52.542c-3.94,0.813-7.801,1.963-11.562,3.469c-23.889,9.604-42.477,34.405-43.712,59.668
	c-1.044,21.217,14.239,41.857,25.253,58.766c5.219,7.992,10.551,16.931,10.448,26.802c-0.09,9.535-8.742,17.014-18.115,17.118
	c-0.972,0.021-2.173-0.011-3.436-0.147c1.93-0.766,3.52-2.256,4.259-4.545c1.509-4.749-2.797-10.527-7.793-10.779
	c-4.503-0.23-7.952,3.884-7.784,8.282c0.24,6.061,5.48,9.944,11.062,11.01c7.848,1.49,16.098-1.26,21.37-7.331
	c5.418-6.197,5.014-15.155,2.669-22.602c-2.716-8.607-7.686-16.09-12.64-23.542c-3.13-4.697-6.02-9.53-8.701-14.489
	c1.254,1.56,2.526,3.107,3.799,4.634c7.436,9.032,14.894,18.068,22.225,27.185c6.637,8.26,14.859,16.741,18.977,26.685
	c2.605,6.303,3.962,12.191,1.643,18.852c-2.244,6.465-6.597,12.951-14.027,12.74c2.576-0.324,4.43-4.634,4.497-6.549
	c0.145-3.332-1.653-6.77-4.539-8.512c-5.397-3.227-13.29-0.341-13.902,6.34c-0.454,5.106,3.075,10.35,7.426,12.716
	c7.248,3.937,14.429,0.552,19.551-5.374c3.283-3.799,5.576-9.053,6.122-14.021C211.385,929.271,206.025,920.283,200.399,912.227z"/>
<path fill="#F4E8BC" d="M168.195,868.712c-1.652-1.632-3.114-3.422-4.755-5.059c5.03,7.32,12.431,14.332,19.152,20.089
	c8.761,7.505,19.136,17.093,31.71,15.329c7.491-1.056,13.595-7.18,16.247-14.327c1.089-2.938,1.601-6.071,1.381-9.079
	c-0.514,1.889-1.674,4.02-3.07,5.72c0.039,0.918,0.347,1.816,1.011,2.152c-0.879,0.1-1.51-0.478-1.834-1.233
	c-0.294,0.299-0.602,0.6-0.914,0.829c-0.386,0.32-0.792,0.567-1.214,0.814c0.422,1.201,1.214,2.561,2.284,2.487
	c-1.456,0.263-2.834-0.63-3.311-2.005c-0.939,0.353-1.905,0.541-2.917,0.604c-0.013,0.021-0.021,0.031-0.026,0.042
	c-1.089,2.088-1.937,6.69,0.462,8.228c-3.148-0.876-3.017-5.646-1.96-8.334c-0.62-0.052-1.24-0.168-1.854-0.319
	c-0.588,0.288-1.145,0.598-1.68,0.96c-2.662,1.825-6.502,6.187-3.368,9.336c-0.698-0.294-1.002-0.767-1.396-1.37
	c-1.148-1.706-0.847-3.27-0.008-5.117c0.63-1.422,2.375-3.616,4.195-4.555c-1.118-0.473-2.191-1.045-3.154-1.732
	c-0.123-0.084-0.271-0.178-0.399-0.262c-0.289,0.042-0.577,0.116-0.853,0.178c-4.917,1.218-7.919,4.324-7.395,9.43
	c-2.165-3.531,1.729-10.349,5.932-11.425c-1.323-1.097-2.703-2.225-4.149-3.117c-0.457,0.143-0.902,0.294-1.354,0.483
	c-3.272,1.454-8.294,5.41-7.756,9.535c-1.021-3.873,2.923-9.315,7.058-11.095c-1.125-0.445-2.275-0.702-3.492-0.624
	c-4.97,0.284-9.099,5.013-7.983,9.861c-4.232-1.034-7.525-2.362-11.103-4.9C176.907,876.841,172.383,872.831,168.195,868.712z"/>
<path fill="#F4E8BC" d="M212.277,850.89c-3.97-3.022-9.64-2.245-12.652,1.728c-2.999,3.978-2.23,9.63,1.739,12.652
	c3.979,3.018,9.641,2.241,12.657-1.731C217.035,859.57,216.258,853.886,212.277,850.89z"/>
<path fill="#F4E8BC" d="M352.005,660.246c2.333,14.72-0.653,30.07-7.185,43.405c-2.61,5.325-5.704,10.008-9.349,14.679
	c-5.309,6.806-10.252,11.991-16.741,17.575c-21.43,18.378-56.21,31.687-82.11,14.32c-19.333-12.982-20.344-44.485,2.39-54.305
	c-12.091,5.222-20.375,13.791-20.215,27.704c0.131,10.921,5.466,21.459,14.234,28.019c7.093,5.327,14.749,8.187,22.621,9.241
	c-0.148,0.053-0.291,0.074-0.453,0.105c-7.343,0.887-14.694,1.622-22.008,2.635c-16.48,2.23-33.119,5.699-46.884,15.544
	c-12.159,8.695-23.348,21.08-27.651,35.675c-4.209,14.212-0.663,28.812,9.717,39.475c10.037,10.285,23.97,13.99,38.148,12.878
	c-15.297,0.876-34.071-7.336-41.99-20.776c-8.257-13.996-3.934-30.926,4.84-43.557c6.88-9.893,16.297-18.745,27.07-24.544
	c-3.173,2.183-6.155,4.724-8.902,7.72c-7.183,7.872-12.021,18.693-7.562,29.199c4.678,11.083,14.828,17.643,26.979,16.446
	c1.831-0.178,3.654-0.719,5.276-1.554c-5.609,2.567-15.043-0.991-19.27-4.198c-5.309-4.009-10.341-9.457-10.721-16.51
	c-0.567-10.49,6.806-19.721,14.922-25.541c9.562-6.827,20.139-10.391,31.091-12.915c-0.644,0.499-1.296,1.013-1.921,1.559
	c-4.682,4.13-8.982,10.144-7.652,16.745c1.491,7.373,9.357,14.416,17.227,12.952c2.304-0.31,4.505-1.484,6.024-3.511
	c3.018-3.967,2.238-9.625-1.742-12.632c-3.973-3.028-9.627-2.252-12.642,1.73c-2.723,3.596-2.343,8.544,0.685,11.698
	c-4.88-3.332-7.866-9.41-5.234-15.167c2.771-6.098,8.499-10.538,14.468-13.324c11.816-5.505,24.972-5.756,37.483-8.627
	c12.41-2.276,24.602-5.852,35.315-12.6c16.778-10.533,31.012-26.072,38.926-44.334c7.785-17.99,9.37-37.927,2.364-56.415
	c-0.9-2.351-1.884-4.66-2.935-6.932c17.612,23.651,23.879,53.25,16.743,82.49c-8.061,33.151-30.543,62.79-57.864,82.816
	c2.413-1.758,4.797-3.553,7.145-5.358c27.108-20.859,48.677-44.034,55.499-79.888c6.531-34.311-5.828-69.162-28.559-94.854
	c-7.732-8.77-16.772-16.699-25.906-23.956c7.68,8.271,15.982,16.221,22.503,25.525C344.812,638.335,350.194,648.854,352.005,660.246
	z"/>
<path fill="#F4E8BC" d="M201.409,816.28c-3.016,3.968-2.229,9.63,1.75,12.646c3.964,3.028,9.629,2.236,12.646-1.73
	c3.007-3.974,2.225-9.646-1.74-12.663C210.087,811.536,204.421,812.303,201.409,816.28z"/>
<path fill="#F4E8BC" d="M315.346,628.339c-3.813-3.243-7.615-6.292-10.215-9.42c1.554,1.879,3.2,4.104,4.239,6.298
	c4.574,9.684-3.617,17.759-4.948,27.032c-1.658,11.645,8.216,22.87,19.31,24.843c14.389,2.571,28.147-18.277,21.015-30.915
	c1.711,9.641-3.111,20.845-12.264,24.922c-7.575,3.386-25.539-4.612-19.845-14.883c0.934,3.354,4.495,5.474,7.914,4.808
	c4.001-0.757,7.62-5.013,8.443-8.896c-5.099,2.771-12.22,1.343-14.812-4.481c1.585,3.19,5.147,3.704,8.482,3.368
	c2.478-0.262,4.568-1.585,5.844-3.71c0.205-0.352,0.341-0.709,0.459-1.055c-0.353-1.848-1.034-3.574-1.935-5.227
	c-0.173,0.246-0.346,0.52-0.551,0.756c-1.711,2.168-3.938,3.244-6.728,2.697c-3.018-0.593-3.663-2.697-5.736-4.444
	c2.073,1.748,4.933,3.223,7.628,2.104c1.724-0.709,3.099-2.193,3.604-3.894c-0.868-1.212-1.853-2.352-2.915-3.469
	c-2.218,2.78-7.224,3.978-8.639-0.063c1.997,1.664,5.589,0.347,6.704-1.879c-1.343-1.307-2.765-2.55-4.188-3.768
	c-1.055,0.823-2.382,1.003-3.403-0.394C313.996,629.551,314.842,629.157,315.346,628.339z"/>
<path fill="#F4E8BC" d="M344.716,646.113c0.013,0.021,0.025,0.053,0.03,0.062l-0.005-0.062
	C344.637,645.919,344.623,645.919,344.716,646.113z"/>
<path fill="#F4E8BC" d="M1060.369,849.331c-0.126,3.401-0.174,6.812-0.095,10.249c0.14,5.505-0.627,14.935,5.062,18.142
	c5.284,2.991,9.506-2.141,12.229-5.992c-3.354,4.634-9.449,0.971-10.449-3.532c-0.363-1.579-0.181-3.217,0.381-4.85
	c0.918,1.16,2.203,2.078,3.474,2.677c2.285,1.107,4.303,1.17,6.387,0.053c0.262-0.116,0.525-0.257,0.774-0.457
	c-0.257,0.178-0.522,0.331-0.774,0.457c-1.769,0.813-3.894,0.341-5.521-0.682c-0.989-0.599-2.688-2.078-3.685-3.621
	c0.664-1.392,1.548-2.734,2.545-4.021c0.824,1.434,2.053,2.703,3.445,3.374c2.582,1.239,4.301,0.227,6.673-0.866
	c-1.133,0.53-2.225,1.019-3.534,0.888c-1.131-0.116-2.409-0.809-3.231-1.579c-0.869-0.814-1.725-1.795-2.187-2.913
	c-0.026-0.084-0.049-0.147-0.081-0.22c1.231-1.422,2.548-2.734,3.768-3.853c0.522,0.839,1.297,1.606,1.893,2.142
	c1.685,1.479,2.854,1.354,5.004,1.28c-2.333,0.084-4.996-1.963-5.862-4.351c0.245-0.185,0.493-0.409,0.723-0.609
	c1.089-0.908,2.223-1.752,3.39-2.528c0.795,2.072,3.354,3.447,5.452,2.729c-2.222,0.761-3.784-1.427-4.122-3.553
	c1.283-0.719,2.579-1.385,3.926-1.9c0.574,1.149,1.646,2.11,2.928,1.983c-1.346-0.336-1.886-1.265-1.968-2.33
	c3.937-1.343,8.146-1.648,12.459-0.394c-7.956-0.556-11.217,5.909-13.28,12.563c-1.859,5.993-2.461,12.532-5.437,18.142
	c-2.377,4.509-8.791,8.55-13.807,6.381c-0.37-0.156-0.725-0.336-1.078-0.524c-7.447-4.093-7.681-14.484-6.906-21.795
	C1059.239,856.28,1059.826,852.869,1060.369,849.331z"/>
<path fill="#F4E8BC" d="M1007.914,763.119c-0.896-0.189-1.794-0.367-2.713-0.509
	C1006.104,762.752,1007.005,762.952,1007.914,763.119z"/>
<path fill="#F4E8BC" d="M1004.695,912.227c7.143-10.212,15.19-19.736,23.083-29.356c16.282-19.895,37.41-38.908,29.826-67.209
	c-6.479-24.161-24.45-47.058-49.69-52.542c3.937,0.813,7.797,1.963,11.549,3.469c23.903,9.604,42.471,34.405,43.714,59.668
	c1.045,21.217-14.235,41.857-25.253,58.766c-5.22,7.992-10.548,16.931-10.448,26.802c0.102,9.535,8.743,17.014,18.118,17.118
	c0.955,0.021,2.17-0.011,3.434-0.147c-1.913-0.766-3.521-2.256-4.261-4.545c-1.514-4.749,2.805-10.527,7.791-10.779
	c4.513-0.23,7.955,3.884,7.78,8.282c-0.233,6.061-5.481,9.944-11.048,11.01c-7.868,1.49-16.098-1.26-21.368-7.331
	c-5.427-6.197-5.022-15.155-2.678-22.602c2.716-8.607,7.676-16.09,12.643-23.542c3.13-4.697,6.017-9.53,8.685-14.489
	c-1.249,1.56-2.514,3.107-3.775,4.634c-7.45,9.032-14.904,18.068-22.246,27.185c-6.631,8.26-14.853,16.741-18.961,26.685
	c-2.606,6.303-3.955,12.191-1.648,18.852c2.257,6.465,6.589,12.951,14.031,12.74c-2.585-0.324-4.424-4.634-4.503-6.549
	c-0.143-3.332,1.664-6.77,4.542-8.512c5.406-3.227,13.293-0.341,13.896,6.34c0.451,5.106-3.069,10.35-7.434,12.716
	c-7.229,3.937-14.41,0.552-19.538-5.374c-3.282-3.799-5.568-9.053-6.114-14.021C993.696,929.271,999.065,920.283,1004.695,912.227z"
	/>
<path fill="#F4E8BC" d="M1036.891,868.712c1.643-1.632,3.125-3.422,4.763-5.059c-5.024,7.32-12.432,14.332-19.158,20.089
	c-8.743,7.505-19.129,17.093-31.702,15.329c-7.49-1.056-13.602-7.18-16.246-14.327c-1.098-2.938-1.619-6.071-1.382-9.079
	c0.508,1.889,1.673,4.02,3.067,5.72c-0.045,0.918-0.359,1.816-1.012,2.152c0.887,0.1,1.514-0.478,1.834-1.233
	c0.286,0.299,0.603,0.6,0.921,0.829c0.375,0.32,0.775,0.567,1.19,0.814c-0.408,1.201-1.207,2.561-2.265,2.487
	c1.443,0.263,2.826-0.63,3.309-2.005c0.927,0.353,1.902,0.541,2.913,0.604c0.017,0.021,0.028,0.031,0.034,0.042
	c1.073,2.088,1.923,6.69-0.472,8.228c3.154-0.876,3.02-5.646,1.955-8.334c0.627-0.052,1.249-0.168,1.866-0.319
	c0.577,0.288,1.141,0.598,1.684,0.96c2.65,1.825,6.489,6.187,3.369,9.336c0.69-0.294,1.005-0.767,1.396-1.37
	c1.13-1.706,0.844-3.27,0.006-5.117c-0.627-1.422-2.383-3.616-4.201-4.555c1.115-0.473,2.178-1.045,3.162-1.732
	c0.134-0.084,0.249-0.178,0.38-0.262c0.301,0.042,0.583,0.116,0.862,0.178c4.923,1.218,7.928,4.324,7.41,9.43
	c2.146-3.531-1.74-10.349-5.94-11.425c1.312-1.097,2.7-2.225,4.156-3.117c0.443,0.143,0.905,0.294,1.339,0.483
	c3.274,1.454,8.302,5.41,7.754,9.535c1.025-3.873-2.921-9.315-7.048-11.095c1.109-0.445,2.269-0.702,3.476-0.624
	c4.98,0.284,9.104,5.013,7.998,9.861c4.24-1.034,7.531-2.362,11.099-4.9C1028.185,876.841,1032.705,872.831,1036.891,868.712z"/>
<path fill="#F4E8BC" d="M992.814,850.89c3.988-3.022,9.635-2.245,12.65,1.728c3.015,3.978,2.227,9.63-1.745,12.652
	c-3.974,3.018-9.642,2.241-12.658-1.731C988.057,859.57,988.83,853.886,992.814,850.89z"/>
<path fill="#F4E8BC" d="M853.073,660.246c-2.323,14.72,0.677,30.07,7.194,43.405c2.611,5.325,5.702,10.008,9.349,14.679
	c5.309,6.806,10.239,11.991,16.741,17.575c21.436,18.378,56.216,31.687,82.095,14.32c19.357-12.982,20.347-44.485-2.385-54.305
	c12.103,5.222,20.388,13.791,20.226,27.704c-0.127,10.921-5.464,21.459-14.235,28.019c-7.092,5.327-14.754,8.187-22.624,9.241
	c0.152,0.053,0.297,0.074,0.449,0.105c7.347,0.887,14.701,1.622,22.02,2.635c16.484,2.23,33.122,5.699,46.884,15.544
	c12.149,8.695,23.346,21.08,27.644,35.675c4.217,14.212,0.685,28.812-9.716,39.475c-10.037,10.285-23.948,13.99-38.147,12.878
	c15.312,0.876,34.074-7.336,41.986-20.776c8.263-13.996,3.938-30.926-4.848-43.557c-6.866-9.893-16.272-18.745-27.045-24.544
	c3.154,2.183,6.148,4.724,8.891,7.72c7.182,7.872,12.012,18.693,7.566,29.199c-4.681,11.083-14.819,17.643-26.971,16.446
	c-1.827-0.178-3.658-0.719-5.295-1.554c5.62,2.567,15.048-0.991,19.275-4.198c5.306-4.009,10.344-9.457,10.727-16.51
	c0.553-10.49-6.809-19.721-14.941-25.541c-9.543-6.827-20.138-10.391-31.078-12.915c0.651,0.499,1.295,1.013,1.922,1.559
	c4.668,4.13,8.986,10.144,7.656,16.745c-1.496,7.373-9.364,14.416-17.226,12.952c-2.315-0.31-4.508-1.484-6.035-3.511
	c-3.009-3.967-2.222-9.625,1.75-12.632c3.974-3.028,9.633-2.252,12.643,1.73c2.726,3.596,2.343,8.544-0.681,11.698
	c4.88-3.332,7.859-9.41,5.235-15.167c-2.786-6.098-8.509-10.538-14.474-13.324c-11.812-5.505-24.969-5.756-37.493-8.627
	c-12.403-2.276-24.586-5.852-35.318-12.6c-16.775-10.533-30.991-26.072-38.911-44.334c-7.801-17.99-9.375-37.927-2.361-56.415
	c0.893-2.351,1.876-4.66,2.932-6.932c-17.604,23.651-23.87,53.25-16.746,82.49c8.066,33.151,30.545,62.79,57.873,82.816
	c-2.422-1.758-4.807-3.553-7.148-5.358c-27.129-20.859-48.684-44.034-55.509-79.888c-6.522-34.311,5.831-69.162,28.562-94.854
	c7.751-8.77,16.759-16.699,25.905-23.956c-7.683,8.271-15.981,16.221-22.494,25.525
	C860.281,638.335,854.895,648.854,853.073,660.246z"/>
<path fill="#F4E8BC" d="M1003.68,816.28c3.017,3.968,2.227,9.63-1.74,12.646c-3.975,3.028-9.637,2.236-12.655-1.73
	c-3.015-3.974-2.227-9.646,1.743-12.663C995.003,811.536,1000.673,812.303,1003.68,816.28z"/>
<path fill="#F4E8BC" d="M889.742,628.339c3.813-3.243,7.62-6.292,10.224-9.42c-1.559,1.879-3.225,4.104-4.259,6.298
	c-4.575,9.684,3.635,17.759,4.963,27.032c1.671,11.645-8.227,22.87-19.315,24.843c-14.387,2.571-28.152-18.277-21.013-30.915
	c-1.711,9.641,3.117,20.845,12.249,24.922c7.599,3.386,25.555-4.612,19.866-14.883c-0.945,3.354-4.492,5.474-7.914,4.808
	c-4.008-0.757-7.617-5.013-8.449-8.896c5.101,2.771,12.211,1.343,14.812-4.481c-1.585,3.19-5.135,3.704-8.496,3.368
	c-2.464-0.262-4.545-1.585-5.831-3.71c-0.196-0.352-0.351-0.709-0.464-1.055c0.362-1.848,1.044-3.574,1.944-5.227
	c0.17,0.246,0.336,0.52,0.538,0.756c1.724,2.168,3.949,3.244,6.738,2.697c3.015-0.593,3.652-2.697,5.732-4.444
	c-2.073,1.748-4.925,3.223-7.633,2.104c-1.716-0.709-3.094-2.193-3.59-3.894c0.864-1.212,1.845-2.352,2.901-3.469
	c2.231,2.78,7.229,3.978,8.644-0.063c-1.992,1.664-5.594,0.347-6.698-1.879c1.338-1.307,2.771-2.55,4.182-3.768
	c1.065,0.823,2.383,1.003,3.409-0.394C891.105,629.551,890.252,629.157,889.742,628.339z"/>
<path fill="#F4E8BC" d="M860.373,646.113c-0.013,0.021-0.018,0.053-0.031,0.062c0,0,0-0.042,0.013-0.062
	C860.469,645.919,860.469,645.919,860.373,646.113z"/>
<path fill="#F4E8BC" d="M144.711,349.934c0.136-3.401,0.181-6.828,0.092-10.255c-0.128-5.505,0.645-14.946-5.051-18.141
	c-5.285-2.986-9.498,2.141-12.243,5.983c3.356-4.618,9.449-0.961,10.472,3.532c0.364,1.6,0.17,3.243-0.391,4.854
	c-0.931-1.154-2.202-2.073-3.463-2.692c-2.307-1.097-4.307-1.149-6.402-0.031c-0.257,0.12-0.52,0.272-0.766,0.451
	c0.26-0.168,0.523-0.32,0.766-0.451c1.773-0.808,3.888-0.341,5.526,0.677c0.994,0.609,2.693,2.089,3.676,3.637
	c-0.664,1.385-1.538,2.74-2.538,4.009c-0.816-1.427-2.044-2.702-3.445-3.369c-2.59-1.238-4.313-0.226-6.673,0.861
	c1.14-0.53,2.226-1.023,3.534-0.882c1.131,0.116,2.404,0.808,3.225,1.575c0.876,0.824,1.72,1.795,2.194,2.913
	c0.026,0.074,0.057,0.163,0.081,0.226c-1.233,1.433-2.553,2.74-3.781,3.831c-0.501-0.829-1.283-1.59-1.887-2.125
	c-1.674-1.47-2.852-1.364-4.995-1.275c2.319-0.089,4.995,1.957,5.862,4.34c-0.249,0.205-0.486,0.414-0.725,0.603
	c-1.086,0.918-2.215,1.763-3.392,2.54c-0.785-2.067-3.356-3.442-5.445-2.729c2.212-0.756,3.794,1.433,4.12,3.553
	c-1.27,0.729-2.579,1.375-3.923,1.9c-0.577-1.149-1.658-2.099-2.926-1.984c1.335,0.331,1.881,1.254,1.963,2.325
	c-3.933,1.354-8.137,1.653-12.443,0.409c7.943,0.525,11.194-5.914,13.262-12.563c1.867-6.014,2.45-12.532,5.446-18.162
	c2.369-4.493,8.782-8.533,13.789-6.371c0.38,0.157,0.748,0.347,1.084,0.525c7.455,4.082,7.681,14.484,6.914,21.794
	C145.842,342.98,145.257,346.391,144.711,349.934z"/>
<path fill="#F4E8BC" d="M197.187,436.14c0.896,0.179,1.789,0.353,2.695,0.499C198.982,436.492,198.093,436.298,197.187,436.14z"/>
<path fill="#F4E8BC" d="M200.399,287.022c-7.152,10.223-15.199,19.748-23.085,29.372c-16.284,19.9-37.403,38.908-29.82,67.194
	c6.463,24.177,24.443,47.068,49.693,52.552c-3.94-0.834-7.801-1.973-11.562-3.469c-23.889-9.587-42.477-34.405-43.712-59.674
	c-1.044-21.206,14.239-41.851,25.253-58.75c5.219-7.998,10.551-16.94,10.448-26.806c-0.09-9.53-8.742-17.014-18.115-17.124
	c-0.972-0.021-2.173,0.026-3.436,0.163c1.93,0.756,3.52,2.241,4.259,4.529c1.509,4.739-2.797,10.538-7.793,10.779
	c-4.503,0.231-7.952-3.883-7.784-8.276c0.24-6.061,5.48-9.95,11.062-11.015c7.848-1.501,16.098,1.264,21.37,7.321
	c5.418,6.219,5.014,15.167,2.669,22.618c-2.716,8.606-7.686,16.084-12.64,23.531c-3.13,4.712-6.02,9.535-8.701,14.5
	c1.254-1.569,2.526-3.107,3.799-4.644c7.436-9.037,14.894-18.053,22.225-27.189c6.637-8.25,14.859-16.73,18.977-26.675
	c2.605-6.297,3.962-12.186,1.643-18.85c-2.244-6.455-6.597-12.947-14.027-12.752c2.576,0.341,4.43,4.649,4.497,6.549
	c0.145,3.348-1.653,6.775-4.539,8.523c-5.397,3.222-13.29,0.341-13.902-6.35c-0.454-5.085,3.075-10.333,7.426-12.7
	c7.248-3.941,14.429-0.556,19.551,5.364c3.283,3.805,5.576,9.058,6.122,14.027C211.385,269.998,206.025,278.972,200.399,287.022z"/>
<path fill="#F4E8BC" d="M168.195,330.548c-1.652,1.622-3.114,3.438-4.755,5.049c5.03-7.311,12.431-14.316,19.152-20.068
	c8.761-7.515,19.136-17.097,31.71-15.35c7.491,1.055,13.595,7.19,16.247,14.337c1.089,2.95,1.601,6.072,1.381,9.079
	c-0.514-1.879-1.674-4.02-3.07-5.731c0.039-0.913,0.347-1.789,1.011-2.141c-0.879-0.094-1.51,0.488-1.834,1.228
	c-0.294-0.299-0.602-0.603-0.914-0.835c-0.386-0.31-0.792-0.567-1.214-0.803c0.422-1.191,1.214-2.556,2.284-2.493
	c-1.456-0.257-2.834,0.651-3.311,2.026c-0.939-0.362-1.905-0.578-2.917-0.62c-0.013-0.01-0.021-0.042-0.026-0.052
	c-1.089-2.089-1.937-6.675,0.462-8.203c-3.148,0.86-3.017,5.631-1.96,8.318c-0.62,0.042-1.24,0.174-1.854,0.326
	c-0.588-0.283-1.145-0.598-1.68-0.966c-2.662-1.81-6.502-6.171-3.368-9.32c-0.698,0.278-1.002,0.766-1.396,1.354
	c-1.148,1.695-0.847,3.285-0.008,5.122c0.63,1.406,2.375,3.616,4.195,4.566c-1.118,0.457-2.191,1.06-3.154,1.716
	c-0.123,0.084-0.271,0.178-0.399,0.268c-0.289-0.047-0.577-0.121-0.853-0.184c-4.917-1.212-7.919-4.33-7.395-9.431
	c-2.165,3.542,1.729,10.349,5.932,11.435c-1.323,1.076-2.703,2.225-4.149,3.117c-0.457-0.142-0.902-0.31-1.354-0.504
	c-3.272-1.422-8.294-5.395-7.756-9.535c-1.021,3.884,2.923,9.326,7.058,11.11c-1.125,0.441-2.275,0.703-3.492,0.624
	c-4.97-0.278-9.099-5.022-7.983-9.866c-4.232,1.023-7.525,2.372-11.103,4.907C176.907,322.424,172.383,326.434,168.195,330.548z"/>
<path fill="#F4E8BC" d="M212.277,348.375c-3.97,3.023-9.64,2.241-12.652-1.737c-2.999-3.973-2.23-9.635,1.739-12.653
	c3.979-3.007,9.641-2.231,12.657,1.748C217.035,339.711,216.258,345.358,212.277,348.375z"/>
<path fill="#F4E8BC" d="M352.005,539.014c2.333-14.715-0.653-30.081-7.185-43.404c-2.61-5.321-5.704-10.009-9.349-14.679
	c-5.309-6.806-10.252-11.985-16.741-17.564c-21.43-18.383-56.21-31.718-82.11-14.331c-19.333,12.972-20.344,44.485,2.39,54.299
	c-12.091-5.216-20.375-13.796-20.215-27.703c0.131-10.926,5.466-21.443,14.234-28.023c7.093-5.316,14.749-8.187,22.621-9.241
	c-0.148-0.042-0.291-0.074-0.453-0.105c-7.343-0.876-14.694-1.632-22.008-2.635c-16.48-2.251-33.119-5.694-46.884-15.539
	c-12.159-8.68-23.348-21.075-27.651-35.664c-4.209-14.216-0.663-28.816,9.717-39.469c10.037-10.307,23.97-13.996,38.148-12.889
	c-15.297-0.876-34.071,7.342-41.99,20.781c-8.257,13.996-3.934,30.926,4.84,43.552c6.88,9.882,16.297,18.745,27.07,24.565
	c-3.173-2.215-6.155-4.749-8.902-7.74c-7.183-7.872-12.021-18.704-7.562-29.199c4.678-11.083,14.828-17.638,26.979-16.447
	c1.831,0.173,3.654,0.729,5.276,1.543c-5.609-2.556-15.043,0.997-19.27,4.198c-5.309,4.02-10.341,9.493-10.721,16.52
	c-0.567,10.48,6.806,19.732,14.922,25.542c9.562,6.827,20.139,10.38,31.091,12.915c-0.644-0.488-1.296-1.013-1.921-1.554
	c-4.682-4.12-8.982-10.154-7.652-16.751c1.491-7.39,9.357-14.41,17.227-12.951c2.304,0.304,4.505,1.485,6.024,3.5
	c3.018,3.967,2.238,9.635-1.742,12.642c-3.973,3.013-9.627,2.23-12.642-1.731c-2.723-3.59-2.343-8.543,0.685-11.708
	c-4.88,3.353-7.866,9.42-5.234,15.177c2.771,6.108,8.499,10.538,14.468,13.314c11.816,5.505,24.972,5.772,37.483,8.638
	c12.41,2.277,24.602,5.852,35.315,12.595c16.778,10.527,31.012,26.082,38.926,44.345c7.785,17.985,9.37,37.911,2.364,56.41
	c-0.9,2.361-1.884,4.66-2.935,6.933c17.612-23.652,23.879-53.261,16.743-82.502c-8.061-33.131-30.543-62.771-57.864-82.812
	c2.413,1.769,4.797,3.548,7.145,5.363c27.108,20.86,48.677,44.023,55.499,79.889c6.531,34.3-5.828,69.172-28.559,94.845
	c-7.732,8.76-16.772,16.699-25.906,23.978c7.68-8.271,15.982-16.221,22.503-25.536C344.812,560.919,350.194,550.407,352.005,539.014
	z"/>
<path fill="#F4E8BC" d="M201.409,382.98c-3.016-3.978-2.229-9.641,1.75-12.648c3.964-3.017,9.629-2.246,12.646,1.737
	c3.007,3.967,2.225,9.645-1.74,12.663C210.087,387.729,204.421,386.963,201.409,382.98z"/>
<path fill="#F4E8BC" d="M315.346,570.932c-3.813,3.223-7.615,6.276-10.215,9.399c1.554-1.854,3.2-4.093,4.239-6.282
	c4.574-9.687-3.617-17.769-4.948-27.042c-1.658-11.649,8.216-22.87,19.31-24.843c14.389-2.567,28.147,18.273,21.015,30.925
	c1.711-9.645-3.111-20.845-12.264-24.917c-7.575-3.406-25.539,4.597-19.845,14.862c0.934-3.354,4.495-5.442,7.914-4.796
	c4.001,0.756,7.62,5.017,8.443,8.89c-5.099-2.766-12.22-1.328-14.812,4.492c1.585-3.207,5.147-3.715,8.482-3.374
	c2.478,0.257,4.568,1.579,5.844,3.71c0.205,0.341,0.341,0.719,0.459,1.055c-0.353,1.848-1.034,3.569-1.935,5.232
	c-0.173-0.263-0.346-0.515-0.551-0.756c-1.711-2.173-3.938-3.259-6.728-2.713c-3.018,0.603-3.663,2.713-5.736,4.461
	c2.073-1.748,4.933-3.223,7.628-2.104c1.724,0.693,3.099,2.178,3.604,3.899c-0.868,1.19-1.853,2.34-2.915,3.453
	c-2.218-2.767-7.224-3.968-8.639,0.062c1.997-1.664,5.589-0.341,6.704,1.879c-1.343,1.302-2.765,2.562-4.188,3.773
	c-1.055-0.834-2.382-1.013-3.403,0.388C313.996,569.699,314.842,570.113,315.346,570.932z"/>
<path fill="#F4E8BC" d="M344.716,553.131c0.013,0,0.025-0.021,0.03-0.042l-0.005,0.042
	C344.637,553.32,344.623,553.32,344.716,553.131z"/>
<path fill="#F4E8BC" d="M306.34,274.354c-2.45-2.372-4.959-4.702-7.562-6.927c-4.194-3.568-10.699-10.454-16.888-8.365
	c-5.741,1.931-4.752,8.501-3.71,13.104c-1.21-5.579,5.591-7.673,9.617-5.416c1.425,0.803,2.511,2.036,3.351,3.526
	c-1.496-0.095-3.03,0.247-4.318,0.797c-2.347,0.961-3.736,2.414-4.307,4.718c-0.084,0.273-0.146,0.577-0.173,0.866
	c0.039-0.289,0.103-0.593,0.173-0.866c0.588-1.868,2.359-3.102,4.191-3.658c1.131-0.33,3.359-0.593,5.166-0.299
	c0.593,1.407,1.005,2.965,1.286,4.566c-1.606-0.347-3.374-0.273-4.812,0.31c-2.656,1.086-3.041,3.059-3.82,5.536
	c0.38-1.207,0.739-2.325,1.711-3.211c0.853-0.766,2.215-1.27,3.346-1.343c1.183-0.095,2.477-0.084,3.618,0.31
	c0.076,0.032,0.157,0.053,0.22,0.1c0.234,1.863,0.336,3.71,0.347,5.347c-0.976-0.168-2.058-0.095-2.864-0.011
	c-2.216,0.273-2.895,1.223-4.288,2.871c1.496-1.774,4.799-2.409,7.152-1.459c-0.019,0.32-0.019,0.656-0.031,0.939
	c-0.056,1.428-0.185,2.839-0.378,4.22c-2.061-0.793-4.815,0.199-5.679,2.236c0.924-2.157,3.592-1.868,5.4-0.714
	c-0.301,1.454-0.693,2.855-1.207,4.224c-1.238-0.357-2.658-0.184-3.427,0.829c1.141-0.777,2.193-0.551,3.044,0.095
	c-1.629,3.831-4.214,7.158-8.02,9.541c5.705-5.558,3.081-12.29-0.482-18.268c-3.226-5.416-7.684-10.218-9.879-16.19
	c-1.75-4.77-0.465-12.238,4.489-14.516c0.359-0.178,0.735-0.336,1.1-0.462c8.008-2.808,15.914,3.978,20.834,9.42
	C301.919,268.859,304.078,271.583,306.34,274.354z"/>
<path fill="#F4E8BC" d="M405.535,292.91c0.74-0.551,1.456-1.097,2.187-1.669C407.005,291.813,406.276,292.349,405.535,292.91z"/>
<path fill="#F4E8BC" d="M296.747,190.881c2.829,12.149,4.518,24.492,6.421,36.814c3.928,25.395,3.946,53.817,30.072,67.084
	c22.307,11.336,51.349,13.245,72.294-1.868c-3.253,2.372-6.675,4.493-10.296,6.287c-23.111,11.351-53.974,8.607-73.604-7.353
	c-16.476-13.408-21.637-38.572-26.843-58.047c-2.461-9.22-5.552-19.175-12.968-25.693c-7.158-6.277-18.488-4.865-24.844,2.046
	c-0.655,0.709-1.435,1.637-2.175,2.661c1.858-0.908,4.009-1.123,6.213-0.131c4.55,2.036,5.971,9.116,2.829,12.984
	c-2.847,3.521-8.218,3.327-11.361,0.268c-4.365-4.235-3.736-10.732-0.806-15.581c4.132-6.853,11.688-11.141,19.721-11.015
	c8.247,0.121,14.632,6.402,18.617,13.136c4.582,7.761,6.83,16.457,9.074,25.122c1.391,5.473,3.065,10.858,4.954,16.163
	c-0.312-1.984-0.627-3.947-0.918-5.925c-1.742-11.572-3.487-23.159-5.374-34.71c-1.698-10.454-2.514-22.23-7.171-31.949
	c-2.944-6.135-6.413-11.073-12.915-13.807c-6.316-2.655-14.054-3.752-18.866,1.91c1.966-1.685,6.421-0.178,7.88,1.023
	c2.563,2.131,3.929,5.762,3.293,9.068c-1.21,6.198-8.622,10.139-13.991,6.114c-4.093-3.065-5.656-9.199-4.491-14.006
	c1.901-8.024,9.213-11.104,17.04-10.968c5.034,0.099,10.472,1.9,14.528,4.822C291.421,171.322,294.517,181.32,296.747,190.881z"/>
<path fill="#F4E8BC" d="M307.6,243.916c0.126,2.33,0.472,4.618,0.585,6.917c-2.078-8.606-2.343-18.819-2.131-27.656
	c0.26-11.54,0.066-25.662,9.758-33.849c5.796-4.87,14.442-5.306,21.535-2.513c2.915,1.165,5.583,2.87,7.67,5.048
	c-1.737-0.866-4.109-1.443-6.308-1.543c-0.651-0.635-1.1-1.475-0.933-2.183c-0.645,0.587-0.632,1.443-0.299,2.183
	c-0.42,0.011-0.85,0.032-1.233,0.121c-0.496,0.078-0.958,0.204-1.393,0.362c-0.624-1.106-1.099-2.603-0.344-3.359
	c-1.17,0.903-1.414,2.54-0.706,3.794c-0.897,0.472-1.7,1.07-2.406,1.774c-0.013-0.011-0.055-0.011-0.068-0.011
	c-2.276-0.583-6.252-3.017-5.794-5.825c-1.462,2.923,2.179,6.004,4.892,7.011c-0.38,0.499-0.709,1.045-1.011,1.606
	c-0.588,0.236-1.198,0.441-1.834,0.603c-3.128,0.756-8.939,0.714-9.184-3.726c-0.257,0.693-0.11,1.26,0.074,1.952
	c0.509,1.973,1.886,2.807,3.807,3.427c1.458,0.467,4.277,0.635,6.192-0.084c-0.394,1.139-0.666,2.34-0.832,3.495
	c-0.019,0.157-0.026,0.305-0.058,0.483c-0.235,0.178-0.467,0.346-0.709,0.52c-4.182,2.844-8.507,2.986-11.951-0.803
	c1.188,3.972,8.858,5.61,12.464,3.227c-0.082,1.695-0.163,3.49-0.447,5.159c-0.42,0.257-0.839,0.472-1.264,0.672
	c-3.272,1.485-9.58,2.571-12.29-0.609c2.195,3.374,8.887,4.057,12.972,2.178c-0.414,1.133-0.989,2.167-1.858,3.023
	c-3.539,3.511-9.815,3.406-12.681-0.656c-2.068,3.842-3.277,7.184-3.771,11.546C307.373,232.014,307.343,238.049,307.6,243.916z"/>
<path fill="#F4E8BC" d="M350.324,223.04c-0.406,4.975-4.762,8.664-9.739,8.249c-4.971-0.42-8.667-4.791-8.258-9.75
	c0.417-4.975,4.786-8.664,9.767-8.239C347.056,213.704,350.756,218.071,350.324,223.04z"/>
<path fill="#F4E8BC" d="M585.522,246.456c-9.386-11.561-22.812-19.596-37.094-23.647c-5.697-1.616-11.257-2.446-17.155-2.85
	c-8.615-0.598-15.773-0.393-24.267,0.703c-28.002,3.668-61.146,20.645-65.518,51.524c-3.271,23.064,19.506,44.858,41.996,34.499
	c-11.978,5.516-23.878,5.951-34.124-3.469c-8.037-7.379-12.311-18.389-11.343-29.315c0.789-8.832,3.77-16.447,8.249-22.996
	c-0.139,0.084-0.265,0.168-0.367,0.268c-5.574,4.86-11.047,9.829-16.676,14.615c-12.678,10.764-26.368,20.834-42.894,24.502
	c-14.589,3.233-31.276,3.285-45.016-3.269c-13.395-6.376-21.889-18.75-22.87-33.618c-0.958-14.332,5.589-27.163,15.901-36.977
	c-10.869,10.784-17.308,30.254-12.592,45.121c4.896,15.502,20.371,23.589,35.638,25.51c11.955,1.485,24.82,0.404,36.354-3.747
	c-3.763,0.897-7.641,1.433-11.694,1.454c-10.658,0.095-21.944-3.542-26.783-13.86c-5.116-10.89-3.219-22.818,5.791-31.073
	c1.338-1.239,2.967-2.231,4.683-2.902c-5.675,2.461-9.321,11.865-9.764,17.14c-0.548,6.638,0.142,14.033,5.13,19.023
	c7.426,7.426,19.227,8.108,28.963,5.962c11.478-2.545,21.204-8.045,30.392-14.484c-0.799,0.137-1.625,0.278-2.436,0.372
	c-6.2,0.73-13.571-0.095-17.588-5.494c-4.49-6.046-4.466-16.61,1.889-21.474c1.765-1.517,4.107-2.362,6.626-2.152
	c4.976,0.425,8.659,4.786,8.247,9.745c-0.42,4.98-4.772,8.664-9.748,8.249c-4.489-0.362-7.927-3.967-8.253-8.323
	c-0.773,5.856,1.748,12.143,7.785,14.027c6.4,2.015,13.532,0.74,19.588-1.852c11.986-5.127,20.974-14.736,31.478-22.13
	c9.98-7.719,20.773-14.4,32.959-17.864c19.047-5.452,40.122-5.647,59.007,0.682c18.577,6.208,34.47,18.362,43.531,35.927
	c1.148,2.231,2.225,4.513,3.209,6.817c-5.835-28.911-23.679-53.35-50.187-67.577c-30.049-16.142-67.125-19.228-100.305-12.301
	c2.942-0.609,5.867-1.186,8.77-1.716c33.659-6.245,65.286-6.796,96.529,12.086c29.893,18.047,47.58,50.537,51.49,84.627
	c1.351,11.613,1.217,23.615,0.52,35.276c-1.016-11.236-1.391-22.723-3.96-33.796C597.015,266.466,592.786,255.43,585.522,246.456z"
	/>
<path fill="#F4E8BC" d="M368.811,254.255c-4.97-0.415-8.664-4.781-8.247-9.761c0.414-4.96,4.773-8.67,9.74-8.245
	c4.97,0.404,8.67,4.786,8.249,9.735C378.15,250.969,373.782,254.674,368.811,254.255z"/>
<path fill="#F4E8BC" d="M584.779,295.062c-0.148,5.001-0.417,9.861,0.166,13.886c-0.347-2.388-0.892-5.122-1.834-7.368
	c-4.157-9.861-15.649-9.168-23.421-14.363c-9.801-6.55-11.535-21.396-5.587-30.978c7.693-12.427,32.4-8.738,37.045,5.028
	c-6.03-7.725-17.597-11.609-26.735-7.531c-7.588,3.374-13.645,22.078-2.201,24.702c-1.86-2.934-1.05-6.985,1.724-9.1
	c3.243-2.461,8.811-2.315,12.254-0.331c-5.468,1.942-9.15,8.197-6.573,14.017c-1.316-3.317,0.686-6.313,3.176-8.565
	c1.853-1.674,4.222-2.356,6.668-1.863c0.385,0.074,0.761,0.21,1.094,0.357c1.131,1.496,1.96,3.164,2.584,4.927
	c-0.305-0.042-0.604-0.084-0.918-0.094c-2.76-0.168-5.055,0.771-6.51,3.201c-1.564,2.65-0.434,4.529-0.518,7.253
	c0.079-2.713,0.885-5.836,3.524-7.09c1.674-0.813,3.699-0.845,5.311-0.073c0.302,1.438,0.493,2.949,0.63,4.482
	c-3.55-0.21-7.791,2.702-5.715,6.481c0.078-2.613,3.469-4.403,5.864-3.747c0.07,1.868,0.047,3.768,0,5.647
	c-1.323,0.226-2.341,1.092-1.974,2.781C582.95,295.251,583.826,294.883,584.779,295.062z"/>
<path fill="#F4E8BC" d="M591.166,261.329c0,0-0.006-0.053-0.019-0.063c0.013,0.01,0.019,0.031,0.031,0.052
	C591.25,261.517,591.241,261.528,591.166,261.329z"/>
<path fill="#F4E8BC" d="M900.596,274.354c2.454-2.372,4.97-4.702,7.564-6.927c4.181-3.568,10.692-10.454,16.888-8.365
	c5.741,1.931,4.744,8.501,3.708,13.104c1.198-5.579-5.584-7.673-9.622-5.416c-1.431,0.803-2.517,2.036-3.343,3.526
	c1.477-0.095,3.015,0.247,4.311,0.797c2.351,0.961,3.732,2.414,4.303,4.718c0.098,0.273,0.166,0.577,0.185,0.866
	c-0.054-0.289-0.113-0.593-0.185-0.866c-0.572-1.868-2.361-3.102-4.188-3.658c-1.11-0.33-3.356-0.593-5.161-0.299
	c-0.58,1.407-1.01,2.965-1.286,4.566c1.605-0.347,3.385-0.273,4.807,0.31c2.648,1.086,3.049,3.059,3.821,5.536
	c-0.38-1.207-0.735-2.325-1.706-3.211c-0.837-0.766-2.22-1.27-3.338-1.343c-1.199-0.095-2.482-0.084-3.629,0.31
	c-0.079,0.032-0.149,0.053-0.231,0.1c-0.228,1.863-0.312,3.71-0.325,5.347c0.972-0.168,2.058-0.095,2.845-0.011
	c2.227,0.273,2.923,1.223,4.301,2.871c-1.509-1.774-4.807-2.409-7.146-1.459c0.014,0.32,0.014,0.656,0.021,0.939
	c0.045,1.428,0.176,2.839,0.386,4.22c2.061-0.793,4.799,0.199,5.67,2.236c-0.923-2.157-3.586-1.868-5.396-0.714
	c0.305,1.454,0.689,2.855,1.207,4.224c1.23-0.357,2.661-0.184,3.434,0.829c-1.136-0.777-2.204-0.551-3.046,0.095
	c1.622,3.831,4.217,7.158,8.011,9.541c-5.698-5.558-3.075-12.29,0.483-18.268c3.231-5.416,7.689-10.218,9.879-16.19
	c1.758-4.77,0.479-12.238-4.482-14.516c-0.369-0.178-0.734-0.336-1.109-0.462c-8.017-2.808-15.917,3.978-20.834,9.42
	C905.015,268.859,902.865,271.583,900.596,274.354z"/>
<path fill="#F4E8BC" d="M801.393,292.91c-0.722-0.551-1.451-1.097-2.17-1.669C799.929,291.813,800.671,292.349,801.393,292.91z"/>
<path fill="#F4E8BC" d="M910.192,190.881c-2.834,12.149-4.521,24.492-6.423,36.814c-3.934,25.395-3.947,53.817-30.089,67.084
	c-22.285,11.336-51.337,13.245-72.286-1.868c3.251,2.372,6.678,4.493,10.302,6.287c23.104,11.351,53.978,8.607,73.614-7.353
	c16.468-13.408,21.626-38.572,26.833-58.047c2.458-9.22,5.562-19.175,12.965-25.693c7.163-6.277,18.496-4.865,24.852,2.046
	c0.652,0.709,1.427,1.637,2.175,2.661c-1.847-0.908-4.028-1.123-6.216-0.131c-4.547,2.036-5.961,9.116-2.826,12.984
	c2.839,3.521,8.215,3.327,11.364,0.268c4.357-4.235,3.741-10.732,0.797-15.581c-4.132-6.853-11.688-11.141-19.72-11.015
	c-8.243,0.121-14.631,6.402-18.611,13.136c-4.581,7.761-6.84,16.457-9.076,25.122c-1.404,5.473-3.055,10.858-4.959,16.163
	c0.326-1.984,0.632-3.947,0.924-5.925c1.737-11.572,3.471-23.159,5.366-34.71c1.708-10.454,2.532-22.23,7.179-31.949
	c2.937-6.135,6.421-11.073,12.909-13.807c6.324-2.655,14.056-3.752,18.869,1.91c-1.973-1.685-6.426-0.178-7.88,1.023
	c-2.569,2.131-3.934,5.762-3.303,9.068c1.212,6.198,8.627,10.139,14.001,6.114c4.099-3.065,5.649-9.199,4.486-14.006
	c-1.896-8.024-9.205-11.104-17.034-10.968c-5.032,0.099-10.462,1.9-14.539,4.822C915.516,171.322,912.408,181.32,910.192,190.881z"
	/>
<path fill="#F4E8BC" d="M899.323,243.916c-0.109,2.33-0.464,4.618-0.568,6.917c2.072-8.606,2.338-18.819,2.13-27.656
	c-0.263-11.54-0.063-25.662-9.767-33.849c-5.794-4.87-14.441-5.306-21.526-2.513c-2.925,1.165-5.586,2.87-7.669,5.048
	c1.729-0.866,4.11-1.443,6.302-1.543c0.647-0.635,1.104-1.475,0.921-2.183c0.672,0.587,0.646,1.443,0.301,2.183
	c0.427,0.011,0.858,0.032,1.249,0.121c0.473,0.078,0.938,0.204,1.386,0.362c0.63-1.106,1.102-2.603,0.354-3.359
	c1.149,0.903,1.404,2.54,0.695,3.794c0.904,0.472,1.703,1.07,2.406,1.774c0.03-0.011,0.045-0.011,0.069-0.011
	c2.271-0.583,6.253-3.017,5.789-5.825c1.459,2.923-2.181,6.004-4.883,7.011c0.38,0.499,0.701,1.045,1.002,1.606
	c0.596,0.236,1.202,0.441,1.842,0.603c3.122,0.756,8.943,0.714,9.176-3.726c0.271,0.693,0.121,1.26-0.062,1.952
	c-0.512,1.973-1.897,2.807-3.818,3.427c-1.469,0.467-4.273,0.635-6.187-0.084c0.393,1.139,0.674,2.34,0.829,3.495
	c0.018,0.157,0.039,0.305,0.062,0.483c0.224,0.178,0.459,0.346,0.701,0.52c4.19,2.844,8.507,2.986,11.965-0.803
	c-1.188,3.972-8.872,5.61-12.469,3.227c0.062,1.695,0.157,3.49,0.459,5.159c0.406,0.257,0.826,0.472,1.252,0.672
	c3.272,1.485,9.569,2.571,12.285-0.609c-2.199,3.374-8.885,4.057-12.976,2.178c0.417,1.133,0.986,2.167,1.86,3.023
	c3.545,3.511,9.824,3.406,12.679-0.656c2.075,3.842,3.277,7.184,3.778,11.546C899.554,232.014,899.586,238.049,899.323,243.916z"/>
<path fill="#F4E8BC" d="M856.611,223.04c0.412,4.975,4.76,8.664,9.743,8.249c4.975-0.42,8.659-4.791,8.26-9.75
	c-0.42-4.975-4.797-8.664-9.766-8.239C859.883,213.704,856.181,218.071,856.611,223.04z"/>
<path fill="#F4E8BC" d="M621.408,246.456c9.387-11.561,22.82-19.596,37.095-23.647c5.696-1.616,11.265-2.446,17.163-2.85
	c8.611-0.598,15.785-0.393,24.269,0.703c27.99,3.668,61.147,20.645,65.517,51.524c3.27,23.064-19.504,44.858-42.001,34.499
	c11.966,5.516,23.875,5.951,34.127-3.469c8.037-7.379,12.297-18.389,11.341-29.315c-0.795-8.832-3.778-16.447-8.249-22.996
	c0.141,0.084,0.26,0.168,0.375,0.268c5.564,4.86,11.047,9.829,16.672,14.615c12.684,10.764,26.356,20.834,42.88,24.502
	c14.6,3.233,31.283,3.285,45.023-3.269c13.391-6.376,21.893-18.75,22.876-33.618c0.95-14.332-5.599-27.163-15.911-36.977
	c10.879,10.784,17.31,30.254,12.592,45.121c-4.89,15.502-20.357,23.589-35.642,25.51c-11.949,1.485-24.812,0.404-36.334-3.747
	c3.744,0.897,7.617,1.433,11.69,1.454c10.658,0.095,21.939-3.542,26.777-13.86c5.116-10.89,3.212-22.818-5.785-31.073
	c-1.354-1.239-2.974-2.231-4.689-2.902c5.665,2.461,9.315,11.865,9.758,17.14c0.56,6.638-0.136,14.033-5.115,19.023
	c-7.444,7.426-19.233,8.108-28.989,5.962c-11.459-2.545-21.184-8.045-30.38-14.484c0.805,0.137,1.619,0.278,2.454,0.372
	c6.199,0.73,13.553-0.095,17.571-5.494c4.503-6.046,4.461-16.61-1.889-21.474c-1.75-1.517-4.112-2.362-6.615-2.152
	c-4.982,0.425-8.67,4.786-8.253,9.745c0.412,4.98,4.771,8.664,9.748,8.249c4.492-0.362,7.914-3.967,8.245-8.323
	c0.782,5.856-1.75,12.143-7.788,14.027c-6.395,2.015-13.535,0.74-19.58-1.852c-11.988-5.127-20.976-14.736-31.464-22.13
	c-10.002-7.719-20.789-14.4-32.969-17.864c-19.05-5.452-40.128-5.647-59.01,0.682c-18.572,6.208-34.467,18.362-43.541,35.927
	c-1.152,2.231-2.202,4.513-3.196,6.817c5.835-28.911,23.675-53.35,50.188-67.577c30.044-16.142,67.12-19.228,100.287-12.301
	c-2.928-0.609-5.855-1.186-8.753-1.716c-33.668-6.245-65.304-6.796-96.529,12.086c-29.884,18.047-47.571,50.537-51.5,84.627
	c-1.335,11.613-1.212,23.615-0.509,35.276c1.011-11.236,1.389-22.723,3.947-33.796C609.919,266.466,614.146,255.43,621.408,246.456z
	"/>
<path fill="#F4E8BC" d="M838.133,254.255c4.962-0.415,8.662-4.781,8.25-9.761c-0.418-4.96-4.784-8.67-9.767-8.245
	c-4.959,0.404-8.648,4.786-8.245,9.735C828.805,250.969,833.166,254.674,838.133,254.255z"/>
<path fill="#F4E8BC" d="M622.164,295.062c0.143,5.001,0.42,9.861-0.168,13.886c0.352-2.388,0.893-5.122,1.837-7.368
	c4.139-9.861,15.652-9.168,23.425-14.363c9.778-6.55,11.529-21.396,5.586-30.978c-7.709-12.427-32.411-8.738-37.065,5.028
	c6.032-7.725,17.596-11.609,26.745-7.531c7.591,3.374,13.634,22.078,2.196,24.702c1.873-2.934,1.06-6.985-1.706-9.1
	c-3.259-2.461-8.822-2.315-12.275-0.331c5.482,1.942,9.166,8.197,6.571,14.017c1.323-3.317-0.681-6.313-3.178-8.565
	c-1.843-1.674-4.225-2.356-6.645-1.863c-0.412,0.074-0.759,0.21-1.097,0.357c-1.134,1.496-1.96,3.164-2.59,4.927
	c0.302-0.042,0.604-0.084,0.918-0.094c2.76-0.168,5.054,0.771,6.508,3.201c1.568,2.65,0.443,4.529,0.514,7.253
	c-0.07-2.713-0.89-5.836-3.521-7.09c-1.678-0.813-3.697-0.845-5.312-0.073c-0.299,1.438-0.499,2.949-0.64,4.482
	c3.564-0.21,7.788,2.702,5.741,6.481c-0.105-2.613-3.475-4.403-5.88-3.747c-0.066,1.868-0.054,3.768,0,5.647
	c1.319,0.226,2.338,1.092,1.973,2.781C623.976,295.251,623.11,294.883,622.164,295.062z"/>
<path fill="#F4E8BC" d="M615.779,261.329v-0.063c0,0-0.011,0.031-0.019,0.052C615.687,261.517,615.687,261.528,615.779,261.329z"/>
<path fill="#F4E8BC" d="M1060.369,349.934c-0.126-3.401-0.174-6.828-0.095-10.255c0.14-5.505-0.627-14.946,5.062-18.141
	c5.284-2.986,9.506,2.141,12.229,5.983c-3.354-4.618-9.449-0.961-10.449,3.532c-0.363,1.6-0.181,3.243,0.381,4.854
	c0.918-1.154,2.203-2.073,3.474-2.692c2.285-1.097,4.303-1.149,6.387-0.031c0.262,0.12,0.525,0.272,0.774,0.451
	c-0.257-0.168-0.522-0.32-0.774-0.451c-1.769-0.808-3.894-0.341-5.521,0.677c-0.989,0.609-2.688,2.089-3.685,3.637
	c0.664,1.385,1.548,2.74,2.545,4.009c0.824-1.427,2.053-2.702,3.445-3.369c2.582-1.238,4.301-0.226,6.673,0.861
	c-1.133-0.53-2.225-1.023-3.534-0.882c-1.131,0.116-2.409,0.808-3.231,1.575c-0.869,0.824-1.725,1.795-2.187,2.913
	c-0.026,0.074-0.049,0.163-0.081,0.226c1.231,1.433,2.548,2.74,3.768,3.831c0.522-0.829,1.297-1.59,1.893-2.125
	c1.685-1.47,2.854-1.364,5.004-1.275c-2.333-0.089-4.996,1.957-5.862,4.34c0.245,0.205,0.493,0.414,0.723,0.603
	c1.089,0.918,2.223,1.763,3.39,2.54c0.795-2.067,3.354-3.442,5.452-2.729c-2.222-0.756-3.784,1.433-4.122,3.553
	c1.283,0.729,2.579,1.375,3.926,1.9c0.574-1.149,1.646-2.099,2.928-1.984c-1.346,0.331-1.886,1.254-1.968,2.325
	c3.937,1.354,8.146,1.653,12.459,0.409c-7.956,0.525-11.217-5.914-13.28-12.563c-1.859-6.014-2.461-12.532-5.437-18.162
	c-2.377-4.493-8.791-8.533-13.807-6.371c-0.37,0.157-0.725,0.347-1.078,0.525c-7.447,4.082-7.681,14.484-6.906,21.794
	C1059.239,342.98,1059.826,346.391,1060.369,349.934z"/>
<path fill="#F4E8BC" d="M1007.914,436.14c-0.896,0.179-1.794,0.353-2.713,0.499C1006.104,436.492,1007.005,436.298,1007.914,436.14z
	"/>
<path fill="#F4E8BC" d="M1004.695,287.022c7.143,10.223,15.19,19.748,23.083,29.372c16.282,19.9,37.41,38.908,29.826,67.194
	c-6.479,24.177-24.45,47.068-49.69,52.552c3.937-0.834,7.797-1.973,11.549-3.469c23.903-9.587,42.471-34.405,43.714-59.674
	c1.045-21.206-14.235-41.851-25.253-58.75c-5.22-7.998-10.548-16.94-10.448-26.806c0.102-9.53,8.743-17.014,18.118-17.124
	c0.955-0.021,2.17,0.026,3.434,0.163c-1.913,0.756-3.521,2.241-4.261,4.529c-1.514,4.739,2.805,10.538,7.791,10.779
	c4.513,0.231,7.955-3.883,7.78-8.276c-0.233-6.061-5.481-9.95-11.048-11.015c-7.868-1.501-16.098,1.264-21.368,7.321
	c-5.427,6.219-5.022,15.167-2.678,22.618c2.716,8.606,7.676,16.084,12.643,23.531c3.13,4.712,6.017,9.535,8.685,14.5
	c-1.249-1.569-2.514-3.107-3.775-4.644c-7.45-9.037-14.904-18.053-22.246-27.189c-6.631-8.25-14.853-16.73-18.961-26.675
	c-2.606-6.297-3.955-12.186-1.648-18.85c2.257-6.455,6.589-12.947,14.031-12.752c-2.585,0.341-4.424,4.649-4.503,6.549
	c-0.143,3.348,1.664,6.775,4.542,8.523c5.406,3.222,13.293,0.341,13.896-6.35c0.451-5.085-3.069-10.333-7.434-12.7
	c-7.229-3.941-14.41-0.556-19.538,5.364c-3.282,3.805-5.568,9.058-6.114,14.027C993.696,269.998,999.065,278.972,1004.695,287.022z"
	/>
<path fill="#F4E8BC" d="M1036.891,330.548c1.643,1.622,3.125,3.438,4.763,5.049c-5.024-7.311-12.432-14.316-19.158-20.068
	c-8.743-7.515-19.129-17.097-31.702-15.35c-7.49,1.055-13.602,7.19-16.246,14.337c-1.098,2.95-1.619,6.072-1.382,9.079
	c0.508-1.879,1.673-4.02,3.067-5.731c-0.045-0.913-0.359-1.789-1.012-2.141c0.887-0.094,1.514,0.488,1.834,1.228
	c0.286-0.299,0.603-0.603,0.921-0.835c0.375-0.31,0.775-0.567,1.19-0.803c-0.408-1.191-1.207-2.556-2.265-2.493
	c1.443-0.257,2.826,0.651,3.309,2.026c0.927-0.362,1.902-0.578,2.913-0.62c0.017-0.01,0.028-0.042,0.034-0.052
	c1.073-2.089,1.923-6.675-0.472-8.203c3.154,0.86,3.02,5.631,1.955,8.318c0.627,0.042,1.249,0.174,1.866,0.326
	c0.577-0.283,1.141-0.598,1.684-0.966c2.65-1.81,6.489-6.171,3.369-9.32c0.69,0.278,1.005,0.766,1.396,1.354
	c1.13,1.695,0.844,3.285,0.006,5.122c-0.627,1.406-2.383,3.616-4.201,4.566c1.115,0.457,2.178,1.06,3.162,1.716
	c0.134,0.084,0.249,0.178,0.38,0.268c0.301-0.047,0.583-0.121,0.862-0.184c4.923-1.212,7.928-4.33,7.41-9.431
	c2.146,3.542-1.74,10.349-5.94,11.435c1.312,1.076,2.7,2.225,4.156,3.117c0.443-0.142,0.905-0.31,1.339-0.504
	c3.274-1.422,8.302-5.395,7.754-9.535c1.025,3.884-2.921,9.326-7.048,11.11c1.109,0.441,2.269,0.703,3.476,0.624
	c4.98-0.278,9.104-5.022,7.998-9.866c4.24,1.023,7.531,2.372,11.099,4.907C1028.185,322.424,1032.705,326.434,1036.891,330.548z"/>
<path fill="#F4E8BC" d="M992.814,348.375c3.988,3.023,9.635,2.241,12.65-1.737c3.015-3.973,2.227-9.635-1.745-12.653
	c-3.974-3.007-9.642-2.231-12.658,1.748C988.057,339.711,988.83,345.358,992.814,348.375z"/>
<path fill="#F4E8BC" d="M853.073,539.014c-2.323-14.715,0.677-30.081,7.194-43.404c2.611-5.321,5.702-10.009,9.349-14.679
	c5.309-6.806,10.239-11.985,16.741-17.564c21.436-18.383,56.216-31.718,82.095-14.331c19.357,12.972,20.347,44.485-2.385,54.299
	c12.103-5.216,20.388-13.796,20.226-27.703c-0.127-10.926-5.464-21.443-14.235-28.023c-7.092-5.316-14.754-8.187-22.624-9.241
	c0.152-0.042,0.297-0.074,0.449-0.105c7.347-0.876,14.701-1.632,22.02-2.635c16.484-2.251,33.122-5.694,46.884-15.539
	c12.149-8.68,23.346-21.075,27.644-35.664c4.217-14.216,0.685-28.816-9.716-39.469c-10.037-10.307-23.948-13.996-38.147-12.889
	c15.312-0.876,34.074,7.342,41.986,20.781c8.263,13.996,3.938,30.926-4.848,43.552c-6.866,9.882-16.272,18.745-27.045,24.565
	c3.154-2.215,6.148-4.749,8.891-7.74c7.182-7.872,12.012-18.704,7.566-29.199c-4.681-11.083-14.819-17.638-26.971-16.447
	c-1.827,0.173-3.658,0.729-5.295,1.543c5.62-2.556,15.048,0.997,19.275,4.198c5.306,4.02,10.344,9.493,10.727,16.52
	c0.553,10.48-6.809,19.732-14.941,25.542c-9.543,6.827-20.138,10.38-31.078,12.915c0.651-0.488,1.295-1.013,1.922-1.554
	c4.668-4.12,8.986-10.154,7.656-16.751c-1.496-7.39-9.364-14.41-17.226-12.951c-2.315,0.304-4.508,1.485-6.035,3.5
	c-3.009,3.967-2.222,9.635,1.75,12.642c3.974,3.013,9.633,2.23,12.643-1.731c2.726-3.59,2.343-8.543-0.681-11.708
	c4.88,3.353,7.859,9.42,5.235,15.177c-2.786,6.108-8.509,10.538-14.474,13.314c-11.812,5.505-24.969,5.772-37.493,8.638
	c-12.403,2.277-24.586,5.852-35.318,12.595c-16.775,10.527-30.991,26.082-38.911,44.345c-7.801,17.985-9.375,37.911-2.361,56.41
	c0.893,2.361,1.876,4.66,2.932,6.933c-17.604-23.652-23.87-53.261-16.746-82.502c8.066-33.131,30.545-62.771,57.873-82.812
	c-2.422,1.769-4.807,3.548-7.148,5.363c-27.129,20.86-48.684,44.023-55.509,79.889c-6.522,34.3,5.831,69.172,28.562,94.845
	c7.751,8.76,16.759,16.699,25.905,23.978c-7.683-8.271-15.981-16.221-22.494-25.536
	C860.281,560.919,854.895,550.407,853.073,539.014z"/>
<path fill="#F4E8BC" d="M1003.68,382.98c3.017-3.978,2.227-9.641-1.74-12.648c-3.975-3.017-9.637-2.246-12.655,1.737
	c-3.015,3.967-2.227,9.645,1.743,12.663C995.003,387.729,1000.673,386.963,1003.68,382.98z"/>
<path fill="#F4E8BC" d="M889.742,570.932c3.813,3.223,7.62,6.276,10.224,9.399c-1.559-1.854-3.225-4.093-4.259-6.282
	c-4.575-9.687,3.635-17.769,4.963-27.042c1.671-11.649-8.227-22.87-19.315-24.843c-14.387-2.567-28.152,18.273-21.013,30.925
	c-1.711-9.645,3.117-20.845,12.249-24.917c7.599-3.406,25.555,4.597,19.866,14.862c-0.945-3.354-4.492-5.442-7.914-4.796
	c-4.008,0.756-7.617,5.017-8.449,8.89c5.101-2.766,12.211-1.328,14.812,4.492c-1.585-3.207-5.135-3.715-8.496-3.374
	c-2.464,0.257-4.545,1.579-5.831,3.71c-0.196,0.341-0.351,0.719-0.464,1.055c0.362,1.848,1.044,3.569,1.944,5.232
	c0.17-0.263,0.336-0.515,0.538-0.756c1.724-2.173,3.949-3.259,6.738-2.713c3.015,0.603,3.652,2.713,5.732,4.461
	c-2.073-1.748-4.925-3.223-7.633-2.104c-1.716,0.693-3.094,2.178-3.59,3.899c0.864,1.19,1.845,2.34,2.901,3.453
	c2.231-2.767,7.229-3.968,8.644,0.062c-1.992-1.664-5.594-0.341-6.698,1.879c1.338,1.302,2.771,2.562,4.182,3.773
	c1.065-0.834,2.383-1.013,3.409,0.388C891.105,569.699,890.252,570.113,889.742,570.932z"/>
<path fill="#F4E8BC" d="M860.373,553.131c-0.013,0-0.018-0.021-0.031-0.042c0,0,0,0.042,0.013,0.042
	C860.469,553.32,860.469,553.32,860.373,553.131z"/>
</svg>
