<?xml version="1.0" encoding="utf-8"?>
<!-- Generator: Adobe Illustrator 16.0.0, SVG Export Plug-In . SVG Version: 6.00 Build 0)  -->
<!DOCTYPE svg PUBLIC "-//W3C//DTD SVG 1.1//EN" "http://www.w3.org/Graphics/SVG/1.1/DTD/svg11.dtd">
<svg version="1.1" id="Layer_2" xmlns="http://www.w3.org/2000/svg" xmlns:xlink="http://www.w3.org/1999/xlink" x="0px" y="0px"
	 width="174.809px" height="105.447px" viewBox="0 0 174.809 105.447" enable-background="new 0 0 174.809 105.447"
	 xml:space="preserve">
<g>
	<g>
		<path fill="#FDE5B5" d="M47.725,25.467c0,0,0-0.042,0-0.167c0-0.124,0-0.25,0-0.458c0-0.415,0-1.039-0.217-1.83
			c-0.172-0.789-0.561-1.703-1.294-2.494c-0.346-0.375-0.819-0.749-1.423-0.998c-0.561-0.25-1.251-0.417-1.94-0.374
			c-0.691,0.042-1.337,0.29-1.856,0.749c-0.517,0.456-0.949,1.246-1.077,2.078c-0.13,0.833,0,1.747,0.432,2.578
			c0.475,0.832,1.251,1.58,2.242,2.078c0.993,0.501,2.157,0.833,3.365,0.791c1.208-0.042,2.502-0.332,3.667-0.957
			c2.331-1.205,4.357-3.532,4.832-6.359c0.518-2.829-0.345-6.071-2.373-8.607c-1.036-1.247-2.286-2.37-3.839-3.158
			c-1.51-0.791-3.278-1.289-5.046-1.455c-3.581-0.334-7.463,0.581-10.482,2.911c-1.51,1.164-2.719,2.661-3.537,4.405
			c-0.819,1.748-1.25,3.659-1.295,5.654c-0.043,1.954,0.303,3.949,0.992,5.864c0.347,0.955,0.777,1.869,1.295,2.742
			c0.518,0.875,1.121,1.747,1.812,2.496c0.172,0.207,0.345,0.375,0.518,0.581l0.562,0.54c0.344,0.375,0.775,0.706,1.164,1.041
			c0.819,0.665,1.683,1.289,2.631,1.787c0.906,0.541,1.897,0.998,2.891,1.413c0.992,0.375,2.027,0.749,3.106,1.039
			c4.228,1.123,8.8,1.123,13.155,0.208c4.4-0.915,8.584-2.618,12.468-4.782c7.807-4.405,14.363-10.476,21.739-15.007
			c3.667-2.287,7.593-4.158,11.689-5.196c4.099-1.039,8.369-1.205,12.338-0.333c3.969,0.873,7.549,2.953,10.094,5.778
			c0.647,0.707,1.208,1.455,1.683,2.246c0.475,0.789,0.861,1.622,1.208,2.453c0.603,1.705,0.904,3.492,0.775,5.279
			c-0.129,3.575-1.725,6.984-4.184,9.353c-1.251,1.165-2.717,2.08-4.313,2.703c-1.596,0.625-3.277,0.998-4.918,1.04
			c-1.639,0.04-3.277-0.168-4.788-0.625c-1.51-0.499-2.846-1.246-4.011-2.246c-2.373-1.912-3.925-4.614-4.485-7.273
			c-0.303-1.331-0.346-2.703-0.131-3.951c0.217-1.287,0.604-2.495,1.251-3.575c0.604-1.039,1.381-1.954,2.33-2.618
			c0.906-0.667,1.94-1.081,2.977-1.289c2.114-0.417,4.228,0.124,5.436,1.289c0.647,0.581,1.078,1.329,1.38,2.078
			c0.259,0.749,0.389,1.539,0.303,2.246c-0.044,0.707-0.303,1.329-0.647,1.87c-0.302,0.5-0.776,0.915-1.295,1.165
			c-0.517,0.29-1.035,0.456-1.552,0.583c-0.519,0.125-0.993,0.125-1.423,0.125c-0.863-0.042-1.511-0.291-1.941-0.499
			c-0.216-0.124-0.388-0.25-0.561-0.333c-0.131-0.084-0.26-0.166-0.347-0.208c-0.172-0.084-0.215-0.042-0.172,0.125
			c0.044,0.084,0.086,0.208,0.172,0.375c0.13,0.124,0.26,0.332,0.476,0.499c0.432,0.374,1.079,0.791,2.027,0.998
			c0.949,0.208,2.113,0.249,3.407-0.166c0.647-0.208,1.294-0.583,1.855-1.081c0.603-0.5,1.077-1.164,1.424-1.954
			c0.646-1.581,0.603-3.534-0.26-5.363c-0.432-0.916-1.078-1.788-1.984-2.494c-0.906-0.707-1.983-1.205-3.148-1.455
			c-2.373-0.541-5.09-0.124-7.42,1.331c-2.287,1.455-3.969,3.864-4.744,6.651c-0.82,2.745-0.647,5.903,0.518,8.813
			c1.121,2.911,3.234,5.612,6.125,7.483c1.466,0.957,3.104,1.663,4.875,2.078c1.768,0.417,3.623,0.541,5.479,0.333
			c3.709-0.333,7.418-1.869,10.31-4.572c1.424-1.373,2.545-2.994,3.407-4.782c0.819-1.787,1.338-3.74,1.553-5.736
			c0.173-1.996,0-4.033-0.561-6.029c-0.604-1.996-1.554-3.865-2.848-5.57c-2.588-3.366-6.298-5.903-10.525-7.233
			c-4.228-1.371-8.843-1.497-13.242-0.749c-2.199,0.375-4.4,0.999-6.514,1.83c-1.079,0.375-2.07,0.873-3.105,1.331
			c-0.519,0.248-0.992,0.499-1.51,0.749c-0.518,0.248-0.992,0.541-1.466,0.789c-7.852,4.407-14.321,10.603-21.784,15.339
			c-3.71,2.37-7.722,4.366-11.948,5.572c-2.114,0.623-4.314,0.997-6.515,1.163c-2.198,0.124-4.398,0.042-6.557-0.417
			c-2.156-0.415-4.227-1.121-6.168-2.12c-1.898-0.998-3.667-2.286-5.047-3.865c-2.761-3.076-4.186-7.402-3.667-11.476
			c0.129-0.998,0.345-1.996,0.775-2.953l0.13-0.374c0.043-0.125,0.13-0.208,0.173-0.333l0.345-0.664
			c0.302-0.417,0.518-0.873,0.862-1.247c1.208-1.582,2.934-2.829,4.918-3.576l0.732-0.292c0.258-0.082,0.519-0.124,0.777-0.208
			c0.517-0.167,1.035-0.249,1.553-0.333c0.258-0.042,0.519-0.082,0.777-0.082l0.775-0.084h0.776c0.259,0,0.519,0,0.777,0.042
			c0.518,0.042,1.079,0.082,1.553,0.208c0.258,0.04,0.517,0.082,0.776,0.166l0.732,0.209l0.389,0.124l0.346,0.166l0.732,0.29
			c0.217,0.126,0.432,0.25,0.69,0.375c0.215,0.126,0.474,0.25,0.647,0.375c1.682,1.123,3.062,2.745,3.881,4.574
			c0.82,1.829,1.122,3.867,0.69,5.778c-0.389,1.872-1.554,3.575-3.105,4.782c-0.776,0.581-1.683,1.081-2.587,1.329
			c-0.907,0.293-1.898,0.375-2.849,0.293c-1.854-0.209-3.667-1.247-4.399-2.745c-0.347-0.707-0.433-1.54-0.258-2.329
			c0.172-0.791,0.603-1.497,1.207-1.871c0.562-0.417,1.381-0.541,2.199-0.417c0.82,0.126,1.641,0.501,2.243,1.081
			C47.293,21.684,47.854,23.595,47.725,25.467z"/>
	</g>
	<g>
		<path fill="#FDE5B5" d="M61.658,18.566c0,0,0-0.042,0-0.167c0-0.124,0.043-0.25,0.043-0.456c0.042-0.417,0.042-1.041-0.13-1.83
			c-0.13-0.791-0.475-1.789-1.078-2.829c-0.604-1.038-1.51-2.12-2.761-3.035c-1.251-0.916-2.891-1.663-4.702-2.078
			c-1.854-0.417-3.925-0.5-5.996-0.208c-2.114,0.333-4.271,1.039-6.211,2.286c-1.941,1.247-3.624,3.035-4.616,5.195
			c-0.517,1.081-0.862,2.289-0.992,3.493c-0.13,1.205-0.043,2.452,0.217,3.659c0.517,2.37,1.725,4.574,3.32,6.401
			c1.641,1.83,3.624,3.16,5.737,4.157c2.071,0.957,4.227,1.539,6.254,1.872c2.028,0.332,3.969,0.416,5.737,0.332
			c1.769-0.042,3.364-0.248,4.746-0.457c2.76-0.458,4.745-0.999,5.736-1.497c1.984-0.997,0.432-1.205-3.538-0.997
			c-1.983,0.082-4.615,0.29-7.634,0.166c-1.51-0.042-3.149-0.208-4.788-0.5c-1.682-0.333-3.407-0.789-5.09-1.579
			c-1.682-0.749-3.278-1.788-4.616-3.118c-1.338-1.328-2.416-2.993-3.02-4.864c-0.604-1.829-0.647-3.824,0-5.652
			c0.646-1.871,1.897-3.577,3.581-4.866c3.365-2.577,8.369-3.49,12.596-2.286c1.035,0.29,2.071,0.707,2.934,1.289
			c0.905,0.541,1.683,1.247,2.328,2.038C61.01,14.659,61.744,16.695,61.658,18.566z"/>
	</g>
	<g>
		<path fill="none" stroke="#FDE5B5" stroke-width="0.4902" stroke-miterlimit="10" d="M94.787,13.243"/>
	</g>
	<g>
		<path fill="#FDE5B5" d="M95.434,14.158c0,0-0.129,0.042-0.346,0.126c-0.216,0.083-0.517,0.209-0.948,0.333
			c-0.819,0.29-1.984,0.707-3.408,1.038c-1.423,0.375-3.148,0.665-4.96,0.707c-1.812,0.042-3.753-0.167-5.564-0.789
			c-1.77-0.583-3.408-1.539-4.572-2.745c-0.303-0.292-0.562-0.583-0.776-0.915c-0.087-0.166-0.216-0.292-0.346-0.458
			c-0.086-0.167-0.215-0.333-0.303-0.457c-0.345-0.625-0.604-1.289-0.774-1.954c-0.173-0.625-0.261-1.247-0.303-1.788
			c-0.044-0.54,0-1.08,0-1.497c0.042-0.915,0.217-1.579,0.13-2.08c-0.088-0.499-0.26-0.749-0.648-0.665
			c-0.344,0.084-0.905,0.457-1.38,1.247c-0.474,0.791-0.949,1.954-0.949,3.409c-0.042,0.749,0.043,1.497,0.259,2.328
			c0.217,0.833,0.519,1.664,1.035,2.497c0.993,1.661,2.589,3.158,4.573,4.157c1.984,0.997,4.27,1.537,6.6,1.579
			s4.659-0.416,6.772-1.205C91.724,16.28,93.709,15.239,95.434,14.158z"/>
	</g>
	<g>
		<path fill="#FDE5B5" d="M130.677,30.041c0,0-0.044,0.291-0.087,0.831c-0.086,0.541-0.172,1.331-0.432,2.328
			c-0.474,1.954-1.336,4.782-3.192,7.732c-1.811,2.952-4.657,6.029-8.366,8.316c-1.856,1.163-3.927,2.12-6.126,2.784
			c-2.201,0.707-4.572,1.165-6.859,2.162c-1.122,0.498-2.243,1.122-3.278,1.955c-0.991,0.831-1.897,1.87-2.416,3.117
			c-1.121,2.453-0.905,5.363,0.432,7.691c0.345,0.581,0.776,1.121,1.251,1.621c0.475,0.456,1.035,0.873,1.596,1.246
			c0.562,0.332,1.165,0.623,1.812,0.873c0.646,0.209,1.295,0.375,1.941,0.457c1.293,0.168,2.631,0.084,3.881-0.29
			c1.251-0.375,2.373-1.039,3.278-1.83c0.906-0.831,1.64-1.828,2.028-2.952c0.431-1.121,0.517-2.369,0.258-3.448
			c-0.476-2.164-1.984-3.909-3.883-4.575c-0.216-0.083-0.475-0.166-0.689-0.208c-0.259-0.041-0.475-0.083-0.733-0.083
			c-0.475-0.041-0.906,0-1.338,0.083c-0.818,0.167-1.51,0.458-2.069,0.832c-0.562,0.374-0.949,0.791-1.251,1.206
			c-0.129,0.208-0.26,0.415-0.346,0.623s-0.13,0.374-0.172,0.541c-0.13,0.707,0,1.08,0.128,1.206c0.13,0.124,0.303,0,0.476-0.25
			c0.216-0.25,0.474-0.665,0.949-1.081c0.474-0.416,1.164-0.79,2.069-0.956c0.863-0.166,1.855,0,2.675,0.706
			c0.819,0.667,1.423,1.788,1.423,3.035c0,1.164-0.646,2.494-1.812,3.408c-1.165,0.916-2.761,1.413-4.443,1.206
			c-1.682-0.208-3.364-1.039-4.356-2.412c-0.992-1.37-1.38-3.325-0.862-5.031c0.476-1.703,1.941-3.158,3.882-4.157
			c1.898-1.038,4.271-1.703,6.73-2.578c2.501-0.873,4.96-2.162,7.16-3.782c2.199-1.622,4.098-3.533,5.693-5.695
			C128.908,40.267,130.59,35.071,130.677,30.041z"/>
	</g>
	<g>
		<path fill="#FDE5B5" d="M130.978,27.919c0,0,0,0.292-0.043,0.791c0,0.499-0.043,1.289,0,2.246
			c0.086,1.953,0.346,4.779,1.337,8.064c0.992,3.284,2.718,7.109,5.78,10.434c1.553,1.664,3.451,3.161,5.65,4.282
			c2.2,1.122,4.746,1.83,7.377,1.996c2.631,0.124,5.393-0.333,7.809-1.538c2.415-1.206,4.442-3.077,5.821-5.363
			c1.38-2.246,2.029-4.949,1.684-7.483c-0.303-2.536-1.466-4.864-3.192-6.609c-1.725-1.748-3.925-2.787-5.996-3.161
			c-1.078-0.166-2.113-0.208-3.062-0.124c-0.992,0.082-1.898,0.333-2.719,0.665c-1.639,0.665-2.803,1.621-3.579,2.536
			c-0.777,0.915-1.166,1.787-1.338,2.412c-0.129,0.623-0.129,0.998,0,1.163c0.087,0.166,0.26,0.084,0.519-0.166
			c0.258-0.249,0.561-0.665,1.078-1.163c0.474-0.501,1.121-1.08,1.983-1.581c0.863-0.541,1.898-0.998,3.149-1.205
			c1.25-0.208,2.674-0.166,4.098,0.292c1.423,0.457,2.847,1.247,3.926,2.494c1.12,1.205,1.896,2.868,2.155,4.656
			c0.042,0.457,0.13,0.915,0.086,1.371c0,0.458-0.043,0.915-0.129,1.373c-0.173,0.915-0.475,1.829-0.95,2.703
			c-0.904,1.744-2.371,3.366-4.227,4.489c-0.906,0.583-1.897,0.998-2.977,1.33c-1.078,0.292-2.2,0.5-3.365,0.542
			c-2.329,0.082-4.702-0.375-6.945-1.331c-2.243-0.914-4.228-2.327-5.996-4.072c-1.725-1.748-3.191-3.783-4.355-5.987
			C132.272,37.606,131.065,32.659,130.978,27.919z"/>
	</g>
	<g>
		<path fill="#FDE5B5" d="M131.668,30.996c0,0-0.043,0.707-0.086,1.955c-0.043,1.247-0.043,2.993,0.086,5.154
			c0.13,2.12,0.433,4.656,1.165,7.317c0.733,2.661,1.898,5.485,3.667,8.064c1.77,2.578,4.229,4.865,7.031,6.443
			c2.804,1.58,5.996,2.369,8.886,2.286s5.394-0.914,7.117-1.995c1.77-1.038,2.718-2.245,3.021-2.993
			c0.301-0.748,0.129-0.999-0.346-0.916c-0.474,0.126-1.251,0.625-2.373,1.165c-1.122,0.581-2.674,1.205-4.571,1.537
			c-1.898,0.333-4.142,0.416-6.515-0.208c-2.372-0.582-4.788-1.745-6.987-3.492c-2.2-1.705-4.056-4.033-5.521-6.652
			c-1.467-2.62-2.503-5.569-3.192-8.564C132.315,37.108,131.928,33.99,131.668,30.996z"/>
	</g>
	<g>
		<path fill="#FDE5B5" d="M99.532,6.677c0,0,0.302-0.126,0.863-0.374c0.561-0.208,1.38-0.541,2.458-0.791
			c2.156-0.541,5.349-0.873,8.974-0.208c1.812,0.334,3.752,0.833,5.651,1.663c1.94,0.791,3.881,1.83,5.778,3.035
			c3.84,2.413,7.463,5.53,11.26,8.607c3.797,3.077,7.851,6.153,12.466,8.19c2.287,0.997,4.702,1.745,7.205,1.995
			c1.207,0.125,2.458,0.167,3.666,0.04c1.208-0.124,2.373-0.375,3.494-0.707c2.2-0.707,4.141-1.911,5.564-3.366
			c0.689-0.749,1.293-1.58,1.725-2.371c0.433-0.831,0.734-1.663,0.906-2.454c0.39-1.58,0.303-3.035,0.042-4.197
			c-0.302-1.165-0.775-1.956-1.208-2.454c-0.216-0.248-0.388-0.415-0.56-0.541c-0.173-0.124-0.302-0.166-0.389-0.166
			c-0.173,0-0.216,0.166-0.173,0.499c0.086,0.667,0.562,1.996,0.432,3.909c-0.086,0.958-0.346,2.038-0.862,3.158
			c-0.518,1.123-1.337,2.204-2.458,3.118c-2.287,1.872-5.868,2.995-9.749,2.621c-1.94-0.208-3.969-0.707-5.996-1.497
			c-2.027-0.791-4.055-1.872-6.04-3.076c-4.012-2.454-7.895-5.612-12.208-8.689c-2.155-1.539-4.398-2.994-6.814-4.281
			c-2.417-1.289-4.96-2.413-7.723-3.119c-2.718-0.707-5.564-1.038-8.368-0.833C104.709,4.598,101.948,5.345,99.532,6.677z"/>
	</g>
	<g>
		<path fill="#FDE5B5" d="M73.435,71.903c0,0,0.042-0.083,0.172-0.249c0.043-0.083,0.129-0.166,0.216-0.291
			c0.086-0.126,0.172-0.25,0.259-0.416c0.172-0.333,0.389-0.749,0.561-1.205c0.173-0.499,0.302-1.039,0.345-1.704
			c0.13-1.246,0-2.785-0.562-4.366c-0.258-0.749-0.646-1.579-1.12-2.369c-0.476-0.832-1.036-1.663-1.64-2.495
			c-1.251-1.745-2.805-3.534-4.312-5.778c-0.734-1.123-1.467-2.331-2.028-3.701c-0.561-1.371-1.036-2.869-1.165-4.448
			c-0.043-0.417-0.043-0.791-0.043-1.207v-0.623c0-0.208,0.043-0.417,0.043-0.625c0.043-0.208,0.043-0.417,0.087-0.583l0.128-0.581
			c0.086-0.375,0.172-0.791,0.303-1.164c0.475-1.497,1.294-2.869,2.286-4.033c1.941-2.328,4.788-3.783,7.462-3.907
			c0,0-0.258,0.082-0.732,0.208c-0.476,0.124-1.165,0.414-1.984,0.831c-0.818,0.458-1.769,1.123-2.674,2.038
			c-0.906,0.915-1.769,2.12-2.416,3.574c-0.646,1.455-0.992,3.2-0.905,5.03c0.131,1.83,0.69,3.659,1.597,5.322
			c0.862,1.662,1.983,3.242,3.191,4.697c1.208,1.455,2.459,2.869,3.623,4.324c-0.646-1.745-1.596-3.408-2.501-5.03
			c-0.904-1.623-1.812-3.201-2.501-4.783c-0.69-1.579-1.166-3.158-1.338-4.656c-0.13-1.497,0.042-2.993,0.517-4.281
			c0.433-1.331,1.035-2.454,1.727-3.408c0.689-0.957,1.423-1.705,2.07-2.288c0.69-0.541,1.251-0.958,1.682-1.205
			c0.432-0.25,0.647-0.375,0.647-0.375c-2.113,1.579-3.537,3.617-4.356,5.736c-0.432,1.038-0.69,2.12-0.777,3.2
			c-0.086,1.083-0.043,2.038,0.172,3.036c0.432,1.995,1.467,4.031,2.676,6.026c1.208,1.995,2.587,4.118,3.667,6.279
			c1.078,2.204,1.854,4.447,1.94,6.651c0.129,2.163-0.345,4.033-1.035,5.404c-0.345,0.706-0.732,1.247-1.122,1.704
			c-0.388,0.458-0.775,0.79-1.12,1.038c-0.173,0.126-0.303,0.209-0.433,0.292c-0.129,0.083-0.259,0.125-0.345,0.208
			C73.521,71.862,73.435,71.903,73.435,71.903z"/>
	</g>
	<g>
		<path fill="#FDE5B5" d="M85.082,53.031c0,0-0.087-0.208-0.26-0.5c-0.172-0.333-0.475-0.748-0.862-1.163
			c-0.819-0.873-2.113-1.788-3.71-2.702c-0.818-0.5-1.725-1.081-2.674-1.872c-0.949-0.791-1.942-1.787-2.675-3.118
			c-0.777-1.413-1.078-3.035-0.777-4.572c0.174-0.749,0.476-1.497,0.949-2.122c0.475-0.623,1.122-1.038,1.812-1.205
			c0,0-0.086,0.083-0.258,0.209c-0.172,0.166-0.432,0.374-0.689,0.749c-0.216,0.374-0.476,0.873-0.604,1.455
			c-0.13,0.581-0.174,1.289-0.043,2.036c0.129,0.749,0.389,1.497,0.819,2.246c0.432,0.749,0.993,1.371,1.64,1.996
			c1.294,1.165,2.847,1.996,4.442,2.745c-0.776-1.579-2.027-2.869-3.02-4.033c-0.475-0.583-0.948-1.165-1.337-1.705
			c-0.388-0.541-0.646-1.121-0.862-1.662c-0.432-1.08-0.562-2.122-0.432-2.868c0.043-0.375,0.129-0.667,0.215-0.875
			c0.086-0.208,0.131-0.333,0.131-0.333c-0.087,1.373,0.388,2.289,0.904,3.077c0.52,0.791,1.079,1.455,1.641,1.995
			c0.689,0.707,1.38,1.373,2.026,2.038c0.733,0.749,1.51,1.579,2.201,2.494c0.689,0.916,1.251,1.914,1.596,2.868
			c0.346,0.958,0.476,1.872,0.476,2.62c0,0.75-0.172,1.289-0.302,1.664c-0.044,0.166-0.131,0.332-0.173,0.414
			C85.082,52.989,85.082,53.031,85.082,53.031z"/>
	</g>
	<g>
		<path fill="#FDE5B5" d="M104.321,90.778c0,0,0.042-0.208,0.172-0.624c0.086-0.374,0.172-0.957,0.216-1.622
			c0.086-1.329-0.216-3.075-0.862-4.863c-0.303-0.915-0.733-1.829-1.165-2.786c-0.475-0.957-0.949-1.996-1.467-3.117
			c-0.519-1.122-0.992-2.328-1.38-3.658c-0.388-1.331-0.647-2.744-0.604-4.199c0,0,0.13,0.5,0.474,1.372
			c0.345,0.832,0.906,1.994,1.596,3.325c0.69,1.33,1.597,2.744,2.46,4.239c0.861,1.498,1.725,3.077,2.501,4.866
			c0.216-0.957,0.216-1.912,0.086-2.91c-0.13-0.958-0.432-1.914-0.819-2.786c-0.733-1.746-1.812-3.201-2.761-4.365
			c-0.992-1.163-1.854-2.079-2.501-2.744c-0.647-0.667-1.035-0.999-1.035-0.999c1.337,0.666,2.545,1.371,3.667,2.245
			c1.121,0.873,2.113,1.829,2.976,2.993c0.863,1.123,1.597,2.412,2.07,3.782c0.475,1.415,0.69,2.829,0.69,4.158
			c-0.044,1.33-0.302,2.578-0.732,3.618c-0.432,1.038-0.993,1.869-1.51,2.494c-0.562,0.623-1.079,0.998-1.425,1.205
			C104.535,90.694,104.321,90.778,104.321,90.778z"/>
	</g>
	<g>
		<path fill="#FDE5B5" d="M126.708,72.236c0,0,0-0.041,0-0.167c0-0.124,0-0.249,0-0.457c-0.043-0.415-0.129-0.998-0.302-1.621
			c-0.388-1.33-1.294-2.911-2.502-4.697c-0.604-0.916-1.293-1.913-1.94-3.16c-0.646-1.205-1.251-2.66-1.51-4.282
			c-0.259-1.704-0.044-3.491,0.733-5.031c0.388-0.791,0.949-1.454,1.596-1.996c0.647-0.54,1.466-0.873,2.2-0.957
			c0,0-0.13,0.084-0.346,0.166c-0.216,0.124-0.562,0.333-0.949,0.707c-0.344,0.333-0.733,0.833-1.078,1.455
			c-0.345,0.625-0.562,1.373-0.69,2.204s-0.129,1.746,0.043,2.704c0.172,0.955,0.518,1.869,0.949,2.743
			c0.862,1.788,2.07,3.326,3.364,4.864c-0.216-1.995-0.949-3.907-1.553-5.57c-0.604-1.704-1.036-3.242-1.078-4.655
			c-0.086-1.415,0.216-2.579,0.561-3.411c0.172-0.415,0.388-0.707,0.518-0.915c0.129-0.207,0.216-0.333,0.216-0.333
			c-0.562,1.415-0.432,2.621-0.259,3.743c0.216,1.08,0.517,2.12,0.905,3.075c0.389,0.999,0.907,2.08,1.38,3.243
			c0.476,1.163,0.949,2.369,1.295,3.616c0.346,1.289,0.476,2.536,0.476,3.659c-0.043,1.121-0.26,2.162-0.562,2.909
			c-0.302,0.792-0.69,1.332-0.992,1.664c-0.128,0.166-0.259,0.291-0.345,0.375C126.751,72.195,126.708,72.236,126.708,72.236z"/>
	</g>
	<g>
		<path fill="#FDE5B5" d="M158.412,9.128c0,0,0.173,0.208,0.434,0.625c0.128,0.208,0.258,0.457,0.431,0.789
			c0.086,0.166,0.13,0.334,0.216,0.541c0.086,0.208,0.129,0.416,0.173,0.625c0.216,0.915,0.344,2.038,0.085,3.366
			c-0.216,1.289-0.775,2.745-1.768,4.117c-0.258,0.333-0.562,0.665-0.863,0.998c-0.344,0.292-0.646,0.625-1.035,0.915
			c-0.216,0.125-0.388,0.291-0.604,0.417c-0.216,0.125-0.433,0.249-0.646,0.375c-0.432,0.249-0.862,0.415-1.338,0.581
			c-1.854,0.667-3.882,0.791-5.737,0.501c-1.897-0.292-3.622-1.041-5.046-2.038c-1.424-0.998-2.589-2.162-3.538-3.533
			c0,0,0.475,0.415,1.382,1.039c0.904,0.623,2.198,1.455,3.968,2.12c1.726,0.665,4.012,1.123,6.384,0.707
			c1.165-0.208,2.33-0.623,3.365-1.331c0.992-0.665,1.811-1.58,2.287-2.619c-3.753,2.661-8.153,2.286-11.519,1.579
			c-1.682-0.374-3.148-0.789-4.185-1.081c-1.034-0.29-1.638-0.457-1.638-0.457c1.682,0,3.32,0.125,4.831,0.249
			c1.51,0.126,2.933,0.208,4.227,0.166c1.295-0.04,2.459-0.166,3.495-0.457c0.258-0.084,0.518-0.124,0.732-0.25l0.347-0.124
			c0.128-0.042,0.215-0.124,0.345-0.166c0.216-0.084,0.431-0.25,0.691-0.333c0.215-0.124,0.431-0.25,0.646-0.417
			c0.819-0.583,1.552-1.331,2.157-2.12c0.561-0.791,0.992-1.579,1.25-2.288c0.087-0.167,0.13-0.373,0.173-0.541
			c0.042-0.166,0.129-0.333,0.129-0.499c0.043-0.291,0.13-0.583,0.172-0.789C158.412,9.42,158.412,9.128,158.412,9.128z"/>
	</g>
	<g>
		<path fill="#FDE5B5" d="M92.327,17.901c0,0-0.086,0.29-0.215,0.873c-0.13,0.541-0.302,1.371-0.432,2.37
			c-0.259,1.996-0.259,4.74,0.475,7.566c0.345,1.413,0.906,2.826,1.639,4.199c0.389,0.665,0.777,1.371,1.25,1.996
			c0.433,0.665,0.949,1.289,1.511,1.954c0.561,0.625,1.121,1.247,1.77,1.871c0.647,0.581,1.294,1.205,1.983,1.745
			c1.424,1.165,2.977,2.204,4.746,3.2c0,0-0.173-0.04-0.562-0.166c-0.172-0.042-0.388-0.124-0.646-0.208
			c-0.259-0.083-0.519-0.207-0.82-0.291c-1.25-0.457-2.934-1.289-4.701-2.495c-1.726-1.246-3.581-2.869-5.091-4.906
			c-1.509-2.038-2.717-4.449-3.494-7.109c-0.172,1.373-0.086,2.829,0.216,4.199c0.301,1.413,0.906,2.745,1.64,3.949
			c1.51,2.412,3.71,4.199,5.78,5.28c2.113,1.081,4.055,1.537,5.436,1.705c0.345,0.04,0.646,0.04,0.904,0.082c0.26,0,0.519,0,0.691,0
			c0.388,0,0.561,0,0.561,0c-1.94,0.541-4.228,0.541-6.384-0.042c-1.079-0.248-2.113-0.707-3.148-1.205
			c-0.992-0.541-1.941-1.164-2.805-1.912c-1.725-1.455-3.104-3.326-3.969-5.321c-0.862-1.996-1.294-4.075-1.294-5.945
			c0-1.914,0.302-3.617,0.82-5.113c0.517-1.455,1.164-2.661,1.769-3.574c0.647-0.916,1.25-1.58,1.684-1.996
			C92.069,18.109,92.327,17.901,92.327,17.901z"/>
	</g>
	<g>
		<path fill="#FDE5B5" d="M20.937,8.464c0,0-0.043,0.124-0.086,0.333c-0.086,0.208-0.172,0.54-0.303,0.998
			c-0.259,0.873-0.517,2.12-0.689,3.698c-0.086,0.791-0.086,1.664-0.086,2.578c0.044,0.915,0.086,1.912,0.26,2.911
			c0.172,1.039,0.387,2.078,0.733,3.158c0.345,1.08,0.774,2.162,1.294,3.202c2.112,4.282,6.082,8.315,11.042,10.975
			c2.502,1.331,5.262,2.369,8.151,3.076c2.892,0.707,5.954,1.122,9.06,1.289c0,0-0.302,0.042-0.905,0.082
			c-0.561,0.042-1.424,0.084-2.502,0.126c-2.113,0-5.133-0.126-8.542-0.999c-3.407-0.831-7.117-2.369-10.481-4.821
			c-3.364-2.455-6.342-5.737-8.368-9.646c0.086,0.541,0.258,1.038,0.432,1.579c0.172,0.5,0.344,1.04,0.603,1.539
			c0.432,1.039,0.949,2.038,1.597,2.953c1.208,1.912,2.804,3.575,4.529,4.989c1.726,1.413,3.667,2.536,5.607,3.366
			c1.941,0.833,3.882,1.33,5.737,1.663c3.667,0.625,6.814,0.332,8.972-0.042c1.079-0.207,1.898-0.415,2.459-0.541
			c0.56-0.166,0.862-0.248,0.862-0.248c-2.762,1.331-6.04,2.12-9.404,2.204c-3.408,0.083-6.901-0.583-10.137-1.956
			c-3.234-1.371-6.082-3.448-8.325-5.902c-2.243-2.453-3.882-5.238-4.789-8.064c-0.474-1.415-0.733-2.788-0.905-4.117
			c-0.13-1.329-0.13-2.619-0.043-3.823c0.086-1.206,0.303-2.288,0.562-3.285c0.258-0.999,0.561-1.914,0.905-2.702
			c0.69-1.581,1.425-2.745,1.942-3.493c0.259-0.375,0.517-0.665,0.647-0.831C20.851,8.588,20.937,8.464,20.937,8.464z"/>
	</g>
</g>
</svg>
